0
SECTION
2
TABLES
0
TABLE
2
LTYPE
0
LTYPE
72
65
70
64
2
CONTINUOUS
3
______
73
0
40
0
0
LTYPE
72
65
70
64
2
DASHED
3
_ _ _ 
73
2
40
10
49
5
49
-5
0
LTYPE
72
65
70
64
2
DOTTED
3
. . . 
73
2
40
5
49
0
49
-5
0
ENDTAB
0
TABLE
2
LAYER
0
LAYER
70
64
2
0
62
7
6
CONTINUOUS
0
LAYER
70
64
2
l_yellow
62
7
6
CONTINUOUS
0
ENDTAB
0
ENDSEC
0
SECTION
2
ENTITIES
0
POLYLINE
8
0
66
1
70
0
0
VERTEX
8
0
70
0
10
-16.431833419583423
20
19.326400153828835
0
VERTEX
8
0
70
0
10
-16.27010003024006
20
19.31861251545223
0
VERTEX
8
0
70
0
10
-16.136139973836585
20
19.2921066850298
0
VERTEX
8
0
70
0
10
-16.01044388104298
20
19.26026035827926
0
VERTEX
8
0
70
0
10
-15.89229555950342
20
19.223561266651995
0
VERTEX
8
0
70
0
10
-15.778776447383729
20
19.184010306094372
0
VERTEX
8
0
70
0
10
-15.671781660402845
20
19.140303104742888
0
VERTEX
8
0
70
0
10
-15.56619761875293
20
19.095950819073572
0
VERTEX
8
0
70
0
10
-15.464045220582085
20
19.049563627622504
0
VERTEX
8
0
70
0
10
-15.365906767885923
20
19.00073926024705
0
VERTEX
8
0
70
0
10
-15.271165559007493
20
18.949899746734484
0
VERTEX
8
0
70
0
10
-15.180247295260013
20
18.896750131998168
0
VERTEX
8
0
70
0
10
-15.093607184607317
20
18.840974617484296
0
VERTEX
8
0
70
0
10
-15.010415756033668
20
18.783141683368687
0
VERTEX
8
0
70
0
10
-14.930641239559572
20
18.723270887903364
0
VERTEX
8
0
70
0
10
-14.853493168850925
20
18.661904687715538
0
VERTEX
8
0
70
0
10
-14.779903302957509
20
18.59839867839666
0
VERTEX
8
0
70
0
10
-14.708234675493848
20
18.533879388417404
0
VERTEX
8
0
70
0
10
-14.637406208414587
20
18.469091444760654
0
VERTEX
8
0
70
0
10
-14.569458737487087
20
18.402625201917715
0
VERTEX
8
0
70
0
10
-14.503236887253916
20
18.335276283078667
0
VERTEX
8
0
70
0
10
-14.438842286354166
20
18.266972983413716
0
VERTEX
8
0
70
0
10
-14.376595868933244
20
18.197491802001313
0
VERTEX
8
0
70
0
10
-14.31643982258341
20
18.12687073309923
0
VERTEX
8
0
70
0
10
-14.257754600229378
20
18.05553647472404
0
VERTEX
8
0
70
0
10
-14.201103234837015
20
17.983097763609187
0
VERTEX
8
0
70
0
10
-14.147053966866599
20
17.90915892816632
0
VERTEX
8
0
70
0
10
-14.095977409876376
20
17.833460401050907
0
VERTEX
8
0
70
0
10
-14.046014725877226
20
17.75728772229018
0
VERTEX
8
0
70
0
10
-13.99738839367837
20
17.680485195058438
0
VERTEX
8
0
70
0
10
-13.953058499447126
20
17.600996782552343
0
VERTEX
8
0
70
0
10
-13.90917024746457
20
17.521494286006025
0
VERTEX
8
0
70
0
10
-13.86878406755823
20
17.43985060619748
0
VERTEX
8
0
70
0
10
-13.829765016628508
20
17.35754553247881
0
VERTEX
8
0
70
0
10
-13.792050074199489
20
17.27462091936268
0
VERTEX
8
0
70
0
10
-13.760614725855177
20
17.18761223284507
0
VERTEX
8
0
70
0
10
-13.729277838988855
20
17.10081557649361
0
VERTEX
8
0
70
0
10
-13.701880427703227
20
17.011554083924548
0
VERTEX
8
0
70
0
10
-13.678028326818076
20
16.92009706740226
0
VERTEX
8
0
70
0
10
-13.657779057622406
20
16.826399250281295
0
VERTEX
8
0
70
0
10
-13.644450709602774
20
16.728139228856875
0
VERTEX
8
0
70
0
10
-13.63129041802769
20
16.6300235561047
0
VERTEX
8
0
70
0
10
-13.627713737353522
20
16.525470697309316
0
VERTEX
8
0
70
0
10
-13.624125143705273
20
16.42117712154402
0
VERTEX
8
0
70
0
10
-13.624170964048036
20
16.31458997379247
0
VERTEX
8
0
70
0
10
-13.625989093821202
20
16.207006890908065
0
VERTEX
8
0
70
0
10
-13.630932165918358
20
16.097476209503867
0
VERTEX
8
0
70
0
10
-13.637224609254005
20
15.987237089860582
0
VERTEX
8
0
70
0
10
-13.647723202803679
20
15.874281505251043
0
VERTEX
8
0
70
0
10
-13.661248769441247
20
15.75942969631257
0
VERTEX
8
0
70
0
10
-13.676285681159284
20
15.643740494206316
0
VERTEX
8
0
70
0
10
-13.698180669049274
20
15.523449997679025
0
VERTEX
8
0
70
0
10
-13.720981313551869
20
15.402734641124677
0
VERTEX
8
0
70
0
10
-13.752958689314674
20
15.275766065136391
0
VERTEX
8
0
70
0
10
-13.790253883304358
20
15.145247254247469
0
VERTEX
8
0
70
0
10
-13.835517875944866
20
15.009297432172175
0
VERTEX
8
0
70
0
10
-13.895318744750675
20
14.863264597119183
0
VERTEX
8
0
70
0
10
-13.978261847824264
20
14.70104229280502
0
VERTEX
8
0
70
0
10
-14.092265157212353
20
14.516989644274052
0
VERTEX
8
0
70
0
10
-14.277224399569299
20
14.282818465571053
0
VERTEX
8
0
70
0
10
-14.611928686839105
20
13.942600888871015
0
VERTEX
8
0
70
0
10
-16.816412583829393
20
12.295379581906944
0
VERTEX
8
0
70
0
10
-16.887551965125972
20
12.234208710683289
0
VERTEX
8
0
70
0
10
-16.94083197718981
20
12.171150772121264
0
VERTEX
8
0
70
0
10
-16.97636641123016
20
12.10731656312424
0
VERTEX
8
0
70
0
10
-16.99426905845628
20
12.043816880595575
0
VERTEX
8
0
70
0
10
-16.994653710077415
20
11.981762521438638
0
VERTEX
8
0
70
0
10
-16.977634157302838
20
11.922264282556782
0
VERTEX
8
0
70
0
10
-16.943324191341787
20
11.866432960853384
0
VERTEX
8
0
70
0
10
-16.89183760340353
20
11.815379353231796
0
VERTEX
8
0
70
0
10
-16.82328818469732
20
11.770214256595384
0
VERTEX
8
0
70
0
10
-16.737789726432403
20
11.732048467847513
0
VERTEX
8
0
70
0
10
-16.72050735241577
20
11.722356733618204
0
VERTEX
8
0
70
0
10
-16.648839498941385
20
11.670366468193317
0
VERTEX
8
0
70
0
10
-16.584739529009582
20
11.613250292358156
0
VERTEX
8
0
70
0
10
-16.5211634302117
20
11.556026386648357
0
VERTEX
8
0
70
0
10
-16.46116174349435
20
11.496511642642236
0
VERTEX
8
0
70
0
10
-16.407748138271046
20
11.432540787404378
0
VERTEX
8
0
70
0
10
-16.3505552803414
20
11.371529622543136
0
VERTEX
8
0
70
0
10
-16.293506047444176
20
11.310671671402085
0
VERTEX
8
0
70
0
10
-16.238607088489125
20
11.248525328568222
0
VERTEX
8
0
70
0
10
-16.185415264749338
20
11.185404108596943
0
VERTEX
8
0
70
0
10
-16.13081111322593
20
11.123548647330143
0
VERTEX
8
0
70
0
10
-16.076655494553222
20
11.0616212636102
0
VERTEX
8
0
70
0
10
-16.025830992986766
20
10.997541813215275
0
VERTEX
8
0
70
0
10
-15.97582761790763
20
10.933114162840406
0
VERTEX
8
0
70
0
10
-15.930455675888474
20
10.865582110826537
0
VERTEX
8
0
70
0
10
-15.887109316799588
20
10.796819402341344
0
VERTEX
8
0
70
0
10
-15.847903710508673
20
10.725288346845646
0
VERTEX
8
0
70
0
10
-15.8103700783857
20
10.652768247920143
0
VERTEX
8
0
70
0
10
-15.773005074114716
20
10.580345484364562
0
VERTEX
8
0
70
0
10
-15.734757012236406
20
10.508783125590268
0
VERTEX
8
0
70
0
10
-15.693564938012969
20
10.43958229257892
0
VERTEX
8
0
70
0
10
-15.649895133323763
20
10.372410047425179
0
VERTEX
8
0
70
0
10
-15.597085508639687
20
10.312131888523353
0
VERTEX
8
0
70
0
10
-15.544709385937816
20
10.25177966850988
0
VERTEX
8
0
70
0
10
-15.481622376818844
20
10.199501295695388
0
VERTEX
8
0
70
0
10
-15.412579705364045
20
10.151844174653395
0
VERTEX
8
0
70
0
10
-15.342382404600803
20
10.10530520427412
0
VERTEX
8
0
70
0
10
-15.270047462080399
20
10.060609436008946
0
VERTEX
8
0
70
0
10
-15.206654549501108
20
10.009619543408533
0
VERTEX
8
0
70
0
10
-15.15122362430624
20
9.953031179626336
0
VERTEX
8
0
70
0
10
-15.098419394774588
20
9.894752826678353
0
VERTEX
8
0
70
0
10
-15.06082406540302
20
9.825491231859772
0
VERTEX
8
0
70
0
10
-15.02007925412049
20
9.758766229719647
0
VERTEX
8
0
70
0
10
-14.981215843254715
20
9.690863688336766
0
VERTEX
8
0
70
0
10
-14.941656808746373
20
9.623686513433327
0
VERTEX
8
0
70
0
10
-14.89976067401725
20
9.558454008340831
0
VERTEX
8
0
70
0
10
-14.857701685206608
20
9.49355692700659
0
VERTEX
8
0
70
0
10
-14.814908642462091
20
9.429420025343443
0
VERTEX
8
0
70
0
10
-14.769169956410202
20
9.36769311788608
0
VERTEX
8
0
70
0
10
-14.723045683298652
20
9.306474310917821
0
VERTEX
8
0
70
0
10
-14.678887647113292
20
9.24400617348811
0
VERTEX
8
0
70
0
10
-14.634265686281775
20
9.182100647260619
0
VERTEX
8
0
70
0
10
-14.589863796123574
20
9.12024568408805
0
VERTEX
8
0
70
0
10
-14.546646041769534
20
9.05771577692451
0
VERTEX
8
0
70
0
10
-14.50185695815199
20
8.996578403589574
0
VERTEX
8
0
70
0
10
-14.456731689237968
20
8.935907872058863
0
VERTEX
8
0
70
0
10
-14.413526898778803
20
8.874001910258805
0
VERTEX
8
0
70
0
10
-14.372477234667004
20
8.810675365324688
0
VERTEX
8
0
70
0
10
-14.332902267671729
20
8.746434430649558
0
VERTEX
8
0
70
0
10
-14.291852453953668
20
8.683509014521984
0
VERTEX
8
0
70
0
10
-14.249509670454726
20
8.621765528520669
0
VERTEX
8
0
70
0
10
-14.209881251856787
20
8.55815922112847
0
VERTEX
8
0
70
0
10
-14.1636117050434
20
8.499808258902792
0
VERTEX
8
0
70
0
10
-14.117572426629597
20
8.44149213404604
0
VERTEX
8
0
70
0
10
-14.061010567638544
20
8.391432319653532
0
VERTEX
8
0
70
0
10
-14.00393914503403
20
8.341999784385937
0
VERTEX
8
0
70
0
10
-13.942013339591526
20
8.296530865133438
0
VERTEX
8
0
70
0
10
-13.880648168369794
20
8.250882184429983
0
VERTEX
8
0
70
0
10
-13.822118454128605
20
8.2032992116455
0
VERTEX
8
0
70
0
10
-13.763861626830929
20
8.155747337645074
0
VERTEX
8
0
70
0
10
-13.706099258271959
20
8.108053941237653
0
VERTEX
8
0
70
0
10
-13.653667974773304
20
8.056470351212916
0
VERTEX
8
0
70
0
10
-13.606236477808322
20
8.001229865512041
0
VERTEX
8
0
70
0
10
-13.558769580305322
20
7.946224697134909
0
VERTEX
8
0
70
0
10
-13.513301474102132
20
7.889869468591044
0
VERTEX
8
0
70
0
10
-13.473329850241374
20
7.829423896127288
0
VERTEX
8
0
70
0
10
-13.437705418751442
20
7.765760387822866
0
VERTEX
8
0
70
0
10
-13.409736623072723
20
7.696264251968703
0
VERTEX
8
0
70
0
10
-13.384852287742875
20
7.6244872456398305
0
VERTEX
8
0
70
0
10
-13.368602349353313
20
7.546044964440483
0
VERTEX
8
0
70
0
10
-13.356651713290988
20
7.464311408639336
0
VERTEX
8
0
70
0
10
-13.35226039813899
20
7.376686271494208
0
VERTEX
8
0
70
0
10
-13.354769056211817
20
7.283650577941511
0
VERTEX
8
0
70
0
10
-13.361001213910745
20
7.1876864266843015
0
VERTEX
8
0
70
0
10
-13.38184973244766
20
7.080107078477898
0
VERTEX
8
0
70
0
10
-13.407776247523591
20
6.968434458323031
0
VERTEX
8
0
70
0
10
-13.445007616645489
20
6.8476619795468885
0
VERTEX
8
0
70
0
10
-13.488732990896427
20
6.72157479367165
0
VERTEX
8
0
70
0
10
-13.55595591726605
20
6.576486697099433
0
VERTEX
8
0
70
0
10
-13.634469825309091
20
6.422078434589892
0
VERTEX
8
0
70
0
10
-13.736536698668347
20
6.248393384148837
0
VERTEX
8
0
70
0
10
-13.836323749999616
20
6.076161467957597
0
VERTEX
8
0
70
0
10
-13.890213288115977
20
5.986175855301735
0
VERTEX
8
0
70
0
10
-13.951714934886521
20
5.8755496118112625
0
VERTEX
8
0
70
0
10
-13.978967634737602
20
5.782906438668178
0
VERTEX
8
0
70
0
10
-13.973327345577461
20
5.710177623442149
0
VERTEX
8
0
70
0
10
-13.936363103763542
20
5.65958608598898
0
VERTEX
8
0
70
0
10
-13.882760274111408
20
5.657883208523973
0
VERTEX
8
0
70
0
10
-13.827396365357043
20
5.653688981534149
0
VERTEX
8
0
70
0
10
-13.770548683688057
20
5.647097172188836
0
VERTEX
8
0
70
0
10
-13.712494535292073
20
5.638201547657342
0
VERTEX
8
0
70
0
10
-13.653511226356711
20
5.627095875108999
0
VERTEX
8
0
70
0
10
-13.593876063069589
20
5.613873921713122
0
VERTEX
8
0
70
0
10
-13.533866351618332
20
5.5986294546390205
0
VERTEX
8
0
70
0
10
-13.473759398190552
20
5.581456241056017
0
VERTEX
8
0
70
0
10
-13.413832508973877
20
5.56244804813344
0
VERTEX
8
0
70
0
10
-13.354362990155924
20
5.541698643040601
0
VERTEX
8
0
70
0
10
-13.295628147924312
20
5.519301792946816
0
VERTEX
8
0
70
0
10
-13.237905288466656
20
5.495351265021416
0
VERTEX
8
0
70
0
10
-13.181471717970581
20
5.469940826433707
0
VERTEX
8
0
70
0
10
-13.126604742623707
20
5.443164244353007
0
VERTEX
8
0
70
0
10
-13.073581668613654
20
5.415115285948655
0
VERTEX
8
0
70
0
10
-13.022679802128039
20
5.385887718389938
0
VERTEX
8
0
70
0
10
-12.974176449354482
20
5.355575308846209
0
VERTEX
8
0
70
0
10
-12.928348916480608
20
5.324271824486761
0
VERTEX
8
0
70
0
10
-12.885474509694028
20
5.29207103248093
0
VERTEX
8
0
70
0
10
-12.853126593454594
20
5.248525981330101
0
VERTEX
8
0
70
0
10
-12.819720364249141
20
5.186266613240321
0
VERTEX
8
0
70
0
10
-12.787845929136124
20
5.122775964375254
0
VERTEX
8
0
70
0
10
-12.755993254542965
20
5.059328660263443
0
VERTEX
8
0
70
0
10
-12.727597200259277
20
4.992980777131503
0
VERTEX
8
0
70
0
10
-12.699628740337422
20
4.9263035946635085
0
VERTEX
8
0
70
0
10
-12.67167013196822
20
4.859649898428771
0
VERTEX
8
0
70
0
10
-12.641830578622475
20
4.794649050677926
0
VERTEX
8
0
70
0
10
-12.609751600988433
20
4.731622625855419
0
VERTEX
8
0
70
0
10
-12.57768757279499
20
4.668625572598447
0
VERTEX
8
0
70
0
10
-12.542992680220303
20
4.607960763729242
0
VERTEX
8
0
70
0
10
-12.502963045918927
20
4.5520107587252525
0
VERTEX
8
0
70
0
10
-12.461311858050358
20
4.497558993948619
0
VERTEX
8
0
70
0
10
-12.408887299630972
20
4.4526708241223965
0
VERTEX
8
0
70
0
10
-12.35634386877586
20
4.408028159798796
0
VERTEX
8
0
70
0
10
-12.299379912461612
20
4.367441058743548
0
VERTEX
8
0
70
0
10
-12.240549460818904
20
4.328676816424636
0
VERTEX
8
0
70
0
10
-12.180370089071557
20
4.2912894255329945
0
VERTEX
8
0
70
0
10
-12.123125766936743
20
4.251457109738798
0
VERTEX
8
0
70
0
10
-12.065983468206788
20
4.2116957848888354
0
VERTEX
8
0
70
0
10
-12.00986117073842
20
4.171176411592558
0
VERTEX
8
0
70
0
10
-11.956919084754746
20
4.127935394542881
0
VERTEX
8
0
70
0
10
-11.904053482996702
20
4.084756846805533
0
VERTEX
8
0
70
0
10
-11.851262942160565
20
4.041639605881919
0
VERTEX
8
0
70
0
10
-11.798312806113492
20
3.998795576549057
0
VERTEX
8
0
70
0
10
-11.745275226434579
20
3.9561583758949688
0
VERTEX
8
0
70
0
10
-11.692310381014149
20
3.9135796467094437
0
VERTEX
8
0
70
0
10
-11.639416774711973
20
3.8710581870410827
0
VERTEX
8
0
70
0
10
-11.58580674410082
20
3.829321699587581
0
VERTEX
8
0
70
0
10
-11.530926058365585
20
3.788891598619074
0
VERTEX
8
0
70
0
10
-11.476123730947513
20
3.748519223508616
0
VERTEX
8
0
70
0
10
-11.421398234243972
20
3.7082034488852784
0
VERTEX
8
0
70
0
10
-11.367627649949553
20
3.667114956593437
0
VERTEX
8
0
70
0
10
-11.315563312340688
20
3.624531167383452
0
VERTEX
8
0
70
0
10
-11.26377879969059
20
3.5817844876141613
0
VERTEX
8
0
70
0
10
-11.212062998260162
20
3.53907055306885
0
VERTEX
8
0
70
0
10
-11.160544850227222
20
3.4962628112818486
0
VERTEX
8
0
70
0
10
-11.10932059689569
20
3.4532640243046195
0
VERTEX
8
0
70
0
10
-11.058568452728133
20
3.4098962361661407
0
VERTEX
8
0
70
0
10
-11.007853704130502
20
3.3665721202882537
0
VERTEX
8
0
70
0
10
-10.957154762955447
20
3.323309410539899
0
VERTEX
8
0
70
0
10
-10.906796521476773
20
3.2797876746162125
0
VERTEX
8
0
70
0
10
-10.855580516277964
20
3.237175394749965
0
VERTEX
8
0
70
0
10
-10.803691783614857
20
3.1952981869466193
0
VERTEX
8
0
70
0
10
-10.751314593217531
20
3.1539794687179707
0
VERTEX
8
0
70
0
10
-10.69653072507291
20
3.1151296006736224
0
VERTEX
8
0
70
0
10
-10.640546407569941
20
3.0775735238553246
0
VERTEX
8
0
70
0
10
-10.584384536275465
20
3.040299077018581
0
VERTEX
8
0
70
0
10
-10.528283906187335
20
3.003065802913966
0
VERTEX
8
0
70
0
10
-10.470036297107358
20
2.9681060470017258
0
VERTEX
8
0
70
0
10
-10.411926578965886
20
2.9331240800571905
0
VERTEX
8
0
70
0
10
-10.355338158397965
20
2.8967022149437334
0
VERTEX
8
0
70
0
10
-10.2989741229851
20
2.86014777661757
0
VERTEX
8
0
70
0
10
-10.243185793647559
20
2.823092506121686
0
VERTEX
8
0
70
0
10
-10.187945660250003
20
2.785553675356148
0
VERTEX
8
0
70
0
10
-10.13059163826232
20
2.7502939306051672
0
VERTEX
8
0
70
0
10
-10.069156054219297
20
2.7194038662428675
0
VERTEX
8
0
70
0
10
-10.004743044148931
20
2.691783699930241
0
VERTEX
8
0
70
0
10
-9.939340752906828
20
2.66537676682276
0
VERTEX
8
0
70
0
10
-9.871012800746938
20
2.6422574184736263
0
VERTEX
8
0
70
0
10
-9.783483268295097
20
2.6398701737388386
0
VERTEX
8
0
70
0
10
-9.695226068088843
20
2.6386900362746175
0
VERTEX
8
0
70
0
10
-9.601582743681346
20
2.6437670544265686
0
VERTEX
8
0
70
0
10
-9.508548437033502
20
2.6486902298325568
0
VERTEX
8
0
70
0
10
-9.425668494344501
20
2.6430334084409886
0
VERTEX
8
0
70
0
10
-9.345571231334418
20
2.6347147954682093
0
VERTEX
8
0
70
0
10
-9.266767786070986
20
2.625331978110946
0
VERTEX
8
0
70
0
10
-9.198616734172337
20
2.6044744574151046
0
VERTEX
8
0
70
0
10
-9.131558458169742
20
2.58261835424565
0
VERTEX
8
0
70
0
10
-9.0705272345074
20
2.5542020058046617
0
VERTEX
8
0
70
0
10
-9.012615591271729
20
2.5223916852099
0
VERTEX
8
0
70
0
10
-8.957993709704873
20
2.486930160778037
0
VERTEX
8
0
70
0
10
-8.90580800613235
20
2.4487235183255542
0
VERTEX
8
0
70
0
10
-8.856615515177863
20
2.407077015828989
0
VERTEX
8
0
70
0
10
-8.813328008120571
20
2.3585545963343755
0
VERTEX
8
0
70
0
10
-8.770673688536096
20
2.3091597836861872
0
VERTEX
8
0
70
0
10
-8.735604567349071
20
2.2507285560800305
0
VERTEX
8
0
70
0
10
-8.701829501711245
20
2.190498179725502
0
VERTEX
8
0
70
0
10
-8.671631134921626
20
2.1257199953439034
0
VERTEX
8
0
70
0
10
-8.652614338799143
20
2.06567483791704
0
VERTEX
8
0
70
0
10
-8.633270241199586
20
1.9977780761529011
0
VERTEX
8
0
70
0
10
-8.607811914257805
20
1.9334859742654835
0
VERTEX
8
0
70
0
10
-8.576612404253382
20
1.8731680145646692
0
VERTEX
8
0
70
0
10
-8.54004475746591
20
1.8171936793603365
0
VERTEX
8
0
70
0
10
-8.49848202017498
20
1.7659324509623673
0
VERTEX
8
0
70
0
10
-8.452297238660178
20
1.7197538116806435
0
VERTEX
8
0
70
0
10
-8.401863459201092
20
1.6790272438250469
0
VERTEX
8
0
70
0
10
-8.347553728077319
20
1.6441222297054594
0
VERTEX
8
0
70
0
10
-8.289741091568438
20
1.6154082516317594
0
VERTEX
8
0
70
0
10
-8.228798595954046
20
1.5932547919138393
0
VERTEX
8
0
70
0
10
-8.165099287513726
20
1.578031332861567
0
VERTEX
8
0
70
0
10
-8.099016212527072
20
1.5701073567848276
0
VERTEX
8
0
70
0
10
-8.030922417273672
20
1.5698523459935139
0
VERTEX
8
0
70
0
10
-7.961190948033114
20
1.5776357827974898
0
VERTEX
8
0
70
0
10
-7.930185486139833
20
1.5882071530576631
0
VERTEX
8
0
70
0
10
-7.827109879270574
20
1.6150438529460907
0
VERTEX
8
0
70
0
10
-7.732324697172275
20
1.6317502368914667
0
VERTEX
8
0
70
0
10
-7.646455653020381
20
1.6372544657446078
0
VERTEX
8
0
70
0
10
-7.628221312861144
20
1.6355252346047173
0
VERTEX
8
0
70
0
10
-7.579534189471581
20
1.6133536167372284
0
VERTEX
8
0
70
0
10
-7.530535295971308
20
1.5880287737017156
0
VERTEX
8
0
70
0
10
-7.481428971980132
20
1.559751007082184
0
VERTEX
8
0
70
0
10
-7.432419557117866
20
1.5287206184626498
0
VERTEX
8
0
70
0
10
-7.383711391004327
20
1.4951379094271537
0
VERTEX
8
0
70
0
10
-7.335508813259323
20
1.4592031815596869
0
VERTEX
8
0
70
0
10
-7.288016163502668
20
1.4211167364442723
0
VERTEX
8
0
70
0
10
-7.2414377813541755
20
1.3810788756649366
0
VERTEX
8
0
70
0
10
-7.195978006433661
20
1.3392899008056887
0
VERTEX
8
0
70
0
10
-7.151841178360931
20
1.295950113450555
0
VERTEX
8
0
70
0
10
-7.109231636755805
20
1.2512598151835341
0
VERTEX
8
0
70
0
10
-7.068353721238091
20
1.2054193075886594
0
VERTEX
8
0
70
0
10
-7.029411771427601
20
1.1586288922499435
0
VERTEX
8
0
70
0
10
-6.99261012694415
20
1.1110888707513986
0
VERTEX
8
0
70
0
10
-6.958153127407553
20
1.062999544677055
0
VERTEX
8
0
70
0
10
-6.926245112437619
20
1.0145612156109145
0
VERTEX
8
0
70
0
10
-6.897090421654161
20
0.9659741851370036
0
VERTEX
8
0
70
0
10
-6.870893394676993
20
0.9174387548393277
0
VERTEX
8
0
70
0
10
-6.847858371125926
20
0.869155226301924
0
VERTEX
8
0
70
0
10
-6.843048008198023
20
0.8485974285560189
0
VERTEX
8
0
70
0
10
-6.826461253234922
20
0.792723122850596
0
VERTEX
8
0
70
0
10
-6.806366503157213
20
0.7362656687820994
0
VERTEX
8
0
70
0
10
-6.782972742141992
20
0.6795153330629589
0
VERTEX
8
0
70
0
10
-6.756488954366362
20
0.6227623824056359
0
VERTEX
8
0
70
0
10
-6.727124124007418
20
0.5662970835225458
0
VERTEX
8
0
70
0
10
-6.695087235242262
20
0.5104097031261432
0
VERTEX
8
0
70
0
10
-6.660587272247986
20
0.4553905079288576
0
VERTEX
8
0
70
0
10
-6.623833219201696
20
0.4015297646431364
0
VERTEX
8
0
70
0
10
-6.585034060280486
20
0.3491177399814198
0
VERTEX
8
0
70
0
10
-6.544398779661455
20
0.2984447006561446
0
VERTEX
8
0
70
0
10
-6.502136361521697
20
0.24980091337975097
0
VERTEX
8
0
70
0
10
-6.458455790038319
20
0.20347664486467565
0
VERTEX
8
0
70
0
10
-6.413566049388413
20
0.15976216182336245
0
VERTEX
8
0
70
0
10
-6.367676123749081
20
0.11894773096825517
0
VERTEX
8
0
70
0
10
-6.320994997297419
20
0.08132361901177987
0
VERTEX
8
0
70
0
10
-6.2737316542105255
20
0.0471800926663839
0
VERTEX
8
0
70
0
10
-6.226095078665498
20
0.016807418644511074
0
VERTEX
8
0
70
0
10
-6.184443834967189
20
-0.0048111863867141835
0
VERTEX
8
0
70
0
10
-6.119583305224835
20
-0.03732041781105622
0
VERTEX
8
0
70
0
10
-6.05411650828648
20
-0.0690839133732517
0
VERTEX
8
0
70
0
10
-5.98832268924742
20
-0.10060365232614643
0
VERTEX
8
0
70
0
10
-5.9221471510592485
20
-0.1317761648621918
0
VERTEX
8
0
70
0
10
-5.8553300021871655
20
-0.16210036768913128
0
VERTEX
8
0
70
0
10
-5.787356723843155
20
-0.19055608751379083
0
VERTEX
8
0
70
0
10
-5.718695464416025
20
-0.21799730939328654
0
VERTEX
8
0
70
0
10
-5.6484177086993475
20
-0.24254633500002853
0
VERTEX
8
0
70
0
10
-5.577361513367747
20
-0.26578321471293265
0
VERTEX
8
0
70
0
10
-5.506165554338514
20
-0.28896722579047207
0
VERTEX
8
0
70
0
10
-5.434147874687255
20
-0.31069207134254384
0
VERTEX
8
0
70
0
10
-5.360256876636897
20
-0.3286943010045462
0
VERTEX
8
0
70
0
10
-5.286468364007286
20
-0.3470326092853
0
VERTEX
8
0
70
0
10
-5.209929673123137
20
-0.3595587374804694
0
VERTEX
8
0
70
0
10
-5.132582104918415
20
-0.37028188947962803
0
VERTEX
8
0
70
0
10
-5.054526918325187
20
-0.37935293594442143
0
VERTEX
8
0
70
0
10
-4.976569180203752
20
-0.3885256075154757
0
VERTEX
8
0
70
0
10
-4.897962380294906
20
-0.39609519148507744
0
VERTEX
8
0
70
0
10
-4.818250822945196
20
-0.40092631325277495
0
VERTEX
8
0
70
0
10
-4.738506260997083
20
-0.4054384053700524
0
VERTEX
8
0
70
0
10
-4.658716329313508
20
-0.40959329971461855
0
VERTEX
8
0
70
0
10
-4.57916656931146
20
-0.4140825294573105
0
VERTEX
8
0
70
0
10
-4.500292952261107
20
-0.420022433319879
0
VERTEX
8
0
70
0
10
-4.422083375002944
20
-0.4274685151188251
0
VERTEX
8
0
70
0
10
-4.344571066889675
20
-0.4365983376732494
0
VERTEX
8
0
70
0
10
-4.270311248781134
20
-0.45426475023845825
0
VERTEX
8
0
70
0
10
-4.196874278247998
20
-0.4744260207379938
0
VERTEX
8
0
70
0
10
-4.124326937427896
20
-0.4974224940567211
0
VERTEX
8
0
70
0
10
-4.051521155750624
20
-0.5202220096720573
0
VERTEX
8
0
70
0
10
-3.9788098343219103
20
-0.543832798738002
0
VERTEX
8
0
70
0
10
-3.905236911494447
20
-0.5655306227711385
0
VERTEX
8
0
70
0
10
-3.831160340935622
20
-0.5862718130417512
0
VERTEX
8
0
70
0
10
-3.757022199923319
20
-0.607351853953702
0
VERTEX
8
0
70
0
10
-3.6828649058203964
20
-0.6289386291275996
0
VERTEX
8
0
70
0
10
-3.6084956299428894
20
-0.6504667666682167
0
VERTEX
8
0
70
0
10
-3.532852066114911
20
-0.6684847850451838
0
VERTEX
8
0
70
0
10
-3.4567198250651283
20
-0.6853734578198889
0
VERTEX
8
0
70
0
10
-3.3790975090506805
20
-0.6976375798572008
0
VERTEX
8
0
70
0
10
-3.3006444172372245
20
-0.7072490932713471
0
VERTEX
8
0
70
0
10
-3.2213562632257937
20
-0.7139970684582693
0
VERTEX
8
0
70
0
10
-3.141535424362997
20
-0.7187806592383019
0
VERTEX
8
0
70
0
10
-3.0617181789121632
20
-0.7234871780729968
0
VERTEX
8
0
70
0
10
-2.981661422433917
20
-0.7271732824138475
0
VERTEX
8
0
70
0
10
-2.901610571861633
20
-0.7307502148851768
0
VERTEX
8
0
70
0
10
-2.821612034058084
20
-0.7344148684332055
0
VERTEX
8
0
70
0
10
-2.7412368109606904
20
-0.7363545111196004
0
VERTEX
8
0
70
0
10
-2.660704762422214
20
-0.7373869222142702
0
VERTEX
8
0
70
0
10
-2.5799138729642928
20
-0.736969372219658
0
VERTEX
8
0
70
0
10
-2.4990530551172645
20
-0.7358586393997335
0
VERTEX
8
0
70
0
10
-2.417929550812727
20
-0.7330502742502034
0
VERTEX
8
0
70
0
10
-2.3361157380681363
20
-0.7261920202755263
0
VERTEX
8
0
70
0
10
-2.2541001662015074
20
-0.7174055750253672
0
VERTEX
8
0
70
0
10
-2.1705304009448656
20
-0.6990211889488052
0
VERTEX
8
0
70
0
10
-2.0824613915845904
20
-0.6528985272192429
0
VERTEX
8
0
70
0
10
-1.9947802629955946
20
-0.6046453603065878
0
VERTEX
8
0
70
0
10
-1.9074459587964832
20
-0.5537131504414958
0
VERTEX
8
0
70
0
10
-1.821113192713286
20
-0.5040356524360163
0
VERTEX
8
0
70
0
10
-1.7369096838337983
20
-0.4636548260143236
0
VERTEX
8
0
70
0
10
-1.6533663620942953
20
-0.4233602482692369
0
VERTEX
8
0
70
0
10
-1.572177048834191
20
-0.39632800167534654
0
VERTEX
8
0
70
0
10
-1.4919466928349243
20
-0.37355961395734383
0
VERTEX
8
0
70
0
10
-1.4132236887617033
20
-0.3607542821675622
0
VERTEX
8
0
70
0
10
-1.3350960247613255
20
-0.35148388566195266
0
VERTEX
8
0
70
0
10
-1.2588450964722933
20
-0.359604232741944
0
VERTEX
8
0
70
0
10
-1.1824148764771947
20
-0.3669053458115279
0
VERTEX
8
0
70
0
10
-1.1187829594763428
20
-0.3883604360164057
0
VERTEX
8
0
70
0
10
-1.0607172015708846
20
-0.41154832794957485
0
VERTEX
8
0
70
0
10
-1.0006235871915434
20
-0.42947918265818785
0
VERTEX
8
0
70
0
10
-0.9389424720237184
20
-0.4422446783338678
0
VERTEX
8
0
70
0
10
-0.8761142117528069
20
-0.44993649316829476
0
VERTEX
8
0
70
0
10
-0.8125791620642085
20
-0.4526463053530989
0
VERTEX
8
0
70
0
10
-0.7487776786433215
20
-0.4504657930799425
0
VERTEX
8
0
70
0
10
-0.6851501171755441
20
-0.4434866345404771
0
VERTEX
8
0
70
0
10
-0.622136833346275
20
-0.4318005079263436
0
VERTEX
8
0
70
0
10
-0.5601781828409128
20
-0.41549909142920427
0
VERTEX
8
0
70
0
10
-0.4997145213448557
20
-0.39467406324071064
0
VERTEX
8
0
70
0
10
-0.44118620454350255
20
-0.36941710155250007
0
VERTEX
8
0
70
0
10
-0.38503358812225186
20
-0.3398198845562419
0
VERTEX
8
0
70
0
10
-0.3316970277665017
20
-0.30597409044357704
0
VERTEX
8
0
70
0
10
-0.2816168791616509
20
-0.26797139740615705
0
VERTEX
8
0
70
0
10
-0.23523349799309834
20
-0.22590348363562995
0
VERTEX
8
0
70
0
10
-0.19298723994624156
20
-0.17986202732366507
0
VERTEX
8
0
70
0
10
-0.18128239957102554
20
-0.16396943460522095
0
VERTEX
8
0
70
0
10
-0.10684977245166438
20
-0.08650094952294651
0
VERTEX
8
0
70
0
10
-0.03314458163841394
20
-0.026965851979269928
0
VERTEX
8
0
70
0
10
0.03994323002707545
20
0.024296512139784454
0
VERTEX
8
0
70
0
10
0.11278803308002527
20
0.06274892158530676
0
VERTEX
8
0
70
0
10
0.18560767278486745
20
0.09013123234716502
0
VERTEX
8
0
70
0
10
0.2585203733512802
20
0.10902157597569584
0
VERTEX
8
0
70
0
10
0.3314445757690334
20
0.12391282477382859
0
VERTEX
8
0
70
0
10
0.40470083118415645
20
0.13162946285616073
0
VERTEX
8
0
70
0
10
0.4780589421522019
20
0.13728744661271008
0
VERTEX
8
0
70
0
10
0.5523873390610354
20
0.13139479103254814
0
VERTEX
8
0
70
0
10
0.6270780773584901
20
0.12333634616599554
0
VERTEX
8
0
70
0
10
0.7036073083806138
20
0.09911198425175627
0
VERTEX
8
0
70
0
10
0.781628136010482
20
0.06537192704410444
0
VERTEX
8
0
70
0
10
0.8605382689069963
20
0.029186221373414867
0
VERTEX
8
0
70
0
10
0.9415383122738961
20
-0.01857399920061198
0
VERTEX
8
0
70
0
10
1.0245751524646445
20
-0.07544558051660033
0
VERTEX
8
0
70
0
10
1.107072395634494
20
-0.12153444572196292
0
VERTEX
8
0
70
0
10
1.1897984776856383
20
-0.16369727159011305
0
VERTEX
8
0
70
0
10
1.2722060233224908
20
-0.19898532707020422
0
VERTEX
8
0
70
0
10
1.3532136932788728
20
-0.22174757557077385
0
VERTEX
8
0
70
0
10
1.4334342982425667
20
-0.23723938004444634
0
VERTEX
8
0
70
0
10
1.5132019309214257
20
-0.24824991553611042
0
VERTEX
8
0
70
0
10
1.5920157251406275
20
-0.25263929238394667
0
VERTEX
8
0
70
0
10
1.6704006266738727
20
-0.2538766681679334
0
VERTEX
8
0
70
0
10
1.7489412362534154
20
-0.25519361706535904
0
VERTEX
8
0
70
0
10
1.8275574511901693
20
-0.25618312649066155
0
VERTEX
8
0
70
0
10
1.9057287884181102
20
-0.25447633834841454
0
VERTEX
8
0
70
0
10
1.9840497625435773
20
-0.2529683724438634
0
VERTEX
8
0
70
0
10
2.062379861019933
20
-0.2510222915764757
0
VERTEX
8
0
70
0
10
2.1408123395126775
20
-0.24905187674981022
0
VERTEX
8
0
70
0
10
2.2193555985737055
20
-0.2470786788455399
0
VERTEX
8
0
70
0
10
2.297977241877712
20
-0.24496281159091993
0
VERTEX
8
0
70
0
10
2.3765806484448984
20
-0.2423380336287373
0
VERTEX
8
0
70
0
10
2.4552726590569933
20
-0.23962700550470473
0
VERTEX
8
0
70
0
10
2.533109792529902
20
-0.23345490640312505
0
VERTEX
8
0
70
0
10
2.610940995651955
20
-0.22703858727816595
0
VERTEX
8
0
70
0
10
2.6876782510278625
20
-0.21670302512390904
0
VERTEX
8
0
70
0
10
2.7625893294077972
20
-0.2003211115712773
0
VERTEX
8
0
70
0
10
2.836856114333905
20
-0.18213249320697145
0
VERTEX
8
0
70
0
10
2.9093363330645934
20
-0.1586720474948322
0
VERTEX
8
0
70
0
10
2.9815907755859845
20
-0.13508412533486336
0
VERTEX
8
0
70
0
10
3.0518527767011907
20
-0.10607771870522953
0
VERTEX
8
0
70
0
10
3.121113821723931
20
-0.07490863135932813
0
VERTEX
8
0
70
0
10
3.190457854299125
20
-0.04480995036399804
0
VERTEX
8
0
70
0
10
3.259870785354015
20
-0.01566175768104827
0
VERTEX
8
0
70
0
10
3.3291091369128623
20
0.013274452376766277
0
VERTEX
8
0
70
0
10
3.398046065963084
20
0.04236316967186937
0
VERTEX
8
0
70
0
10
3.4688874144630084
20
0.06580357199682396
0
VERTEX
8
0
70
0
10
3.54016194951597
20
0.08773428338330902
0
VERTEX
8
0
70
0
10
3.6118883373248973
20
0.10820571931777678
0
VERTEX
8
0
70
0
10
3.685429066295282
20
0.12393071393013955
0
VERTEX
8
0
70
0
10
3.7590511451548787
20
0.1394024724581655
0
VERTEX
8
0
70
0
10
3.833480057246333
20
0.15290980786487296
0
VERTEX
8
0
70
0
10
3.9080132263469256
20
0.166216212722734
0
VERTEX
8
0
70
0
10
3.9823001395764814
20
0.18014922039015957
0
VERTEX
8
0
70
0
10
4.056527286329928
20
0.19426216180682232
0
VERTEX
8
0
70
0
10
4.130881319871779
20
0.20813827505697446
0
VERTEX
8
0
70
0
10
4.2056429537349285
20
0.22118237219245174
0
VERTEX
8
0
70
0
10
4.2797760615825275
20
0.23567657863012315
0
VERTEX
8
0
70
0
10
4.353297875725591
20
0.2515224169746624
0
VERTEX
8
0
70
0
10
4.426828100058964
20
0.2673700679311146
0
VERTEX
8
0
70
0
10
4.498784519571543
20
0.2864790635165626
0
VERTEX
8
0
70
0
10
4.568862890837089
20
0.30932381172516443
0
VERTEX
8
0
70
0
10
4.63805005300461
20
0.3337767269608527
0
VERTEX
8
0
70
0
10
4.705344379667294
20
0.36174208810567166
0
VERTEX
8
0
70
0
10
4.771907057562377
20
0.39082711236453704
0
VERTEX
8
0
70
0
10
4.838434969394712
20
0.41966203269156566
0
VERTEX
8
0
70
0
10
4.9047941255774745
20
0.4485174196563406
0
VERTEX
8
0
70
0
10
4.9705393188348435
20
0.47822631057408316
0
VERTEX
8
0
70
0
10
5.03571633299814
20
0.508677794905303
0
VERTEX
8
0
70
0
10
5.100662734291531
20
0.5392401751575626
0
VERTEX
8
0
70
0
10
5.1654671750464765
20
0.5697587508066135
0
VERTEX
8
0
70
0
10
5.229975642965143
20
0.6005136598466976
0
VERTEX
8
0
70
0
10
5.294295416836385
20
0.631317047958774
0
VERTEX
8
0
70
0
10
5.3584591383500895
20
0.6621185347399816
0
VERTEX
8
0
70
0
10
5.42157970015804
20
0.6944272802483837
0
VERTEX
8
0
70
0
10
5.483843419666495
20
0.7278835127864021
0
VERTEX
8
0
70
0
10
5.545573442493479
20
0.7619190720932352
0
VERTEX
8
0
70
0
10
5.605604108920489
20
0.7984230788939897
0
VERTEX
8
0
70
0
10
5.662095175045592
20
0.8402839754747689
0
VERTEX
8
0
70
0
10
5.71822050916825
20
0.8822626879692912
0
VERTEX
8
0
70
0
10
5.7724394804026895
20
0.9267909482425551
0
VERTEX
8
0
70
0
10
5.820230926827257
20
0.9808351472694099
0
VERTEX
8
0
70
0
10
5.865872234613296
20
1.037494125229916
0
VERTEX
8
0
70
0
10
5.907675875761589
20
1.0992618302224422
0
VERTEX
8
0
70
0
10
5.939874653011396
20
1.1746743295169964
0
VERTEX
8
0
70
0
10
5.962663257919216
20
1.263012086672596
0
VERTEX
8
0
70
0
10
5.982970408743592
20
1.3536516661651845
0
VERTEX
8
0
70
0
10
6.001306433447906
20
1.445786707848793
0
VERTEX
8
0
70
0
10
6.019092072919317
20
1.5373288049592837
0
VERTEX
8
0
70
0
10
6.040098259368588
20
1.6229129246958038
0
VERTEX
8
0
70
0
10
6.064575369568982
20
1.7023748248588184
0
VERTEX
8
0
70
0
10
6.093227637010836
20
1.774919583363733
0
VERTEX
8
0
70
0
10
6.1277071853345575
20
1.8384665185441875
0
VERTEX
8
0
70
0
10
6.166701567383762
20
1.895090411556044
0
VERTEX
8
0
70
0
10
6.207226512676612
20
1.949062094297652
0
VERTEX
8
0
70
0
10
6.25262858060818
20
1.9959502979597588
0
VERTEX
8
0
70
0
10
6.299551920016527
20
2.0404454245275616
0
VERTEX
8
0
70
0
10
6.34766082025681
20
2.0830651821313992
0
VERTEX
8
0
70
0
10
6.399617822974363
20
2.1203743160899897
0
VERTEX
8
0
70
0
10
6.4515121195748755
20
2.157607620257636
0
VERTEX
8
0
70
0
10
6.5078305873354685
20
2.1889911898652414
0
VERTEX
8
0
70
0
10
6.567651443314551
20
2.215862661527172
0
VERTEX
8
0
70
0
10
6.63266801674252
20
2.236200879334177
0
VERTEX
8
0
70
0
10
6.698096545164363
20
2.256184713772633
0
VERTEX
8
0
70
0
10
6.766077722587275
20
2.2731631217148163
0
VERTEX
8
0
70
0
10
6.844129501857386
20
2.277936528574159
0
VERTEX
8
0
70
0
10
6.9225565407630505
20
2.282680655680867
0
VERTEX
8
0
70
0
10
7.009343903592063
20
2.277704929563061
0
VERTEX
8
0
70
0
10
7.103667999916484
20
2.2642404582500575
0
VERTEX
8
0
70
0
10
7.127320526016243
20
2.258830845734675
0
VERTEX
8
0
70
0
10
7.192671727003074
20
2.2503742695163993
0
VERTEX
8
0
70
0
10
7.257276727847094
20
2.2486705692592075
0
VERTEX
8
0
70
0
10
7.320741197280867
20
2.2534669658696735
0
VERTEX
8
0
70
0
10
7.382670804036962
20
2.2645106802544213
0
VERTEX
8
0
70
0
10
7.4426712168479465
20
2.2815489333200425
0
VERTEX
8
0
70
0
10
7.500348104446381
20
2.3043289459731326
0
VERTEX
8
0
70
0
10
7.555307135564833
20
2.3325979391202942
0
VERTEX
8
0
70
0
10
7.607153978935868
20
2.366103133668126
0
VERTEX
8
0
70
0
10
7.655494303292057
20
2.4045917505232204
0
VERTEX
8
0
70
0
10
7.699933777365956
20
2.4478110105921864
0
VERTEX
8
0
70
0
10
7.740078069890139
20
2.495508134781627
0
VERTEX
8
0
70
0
10
7.775532849597168
20
2.5474303439981227
0
VERTEX
8
0
70
0
10
7.805903785219607
20
2.603324859148291
0
VERTEX
8
0
70
0
10
7.830796545490026
20
2.6629389011387197
0
VERTEX
8
0
70
0
10
7.849816799140987
20
2.7260196908760186
0
VERTEX
8
0
70
0
10
7.8590447936710675
20
2.757893810073579
0
VERTEX
8
0
70
0
10
7.8872054720529725
20
2.820873572993527
0
VERTEX
8
0
70
0
10
7.920909796005258
20
2.877564029150804
0
VERTEX
8
0
70
0
10
7.95641277715713
20
2.932077612305985
0
VERTEX
8
0
70
0
10
7.996472528755687
20
2.9815532653760286
0
VERTEX
8
0
70
0
10
8.034383561928188
20
3.0331265522348474
0
VERTEX
8
0
70
0
10
8.077453088268765
20
3.0791511340763265
0
VERTEX
8
0
70
0
10
8.127426784999596
20
3.1179335778645196
0
VERTEX
8
0
70
0
10
8.180816856790306
20
3.1532040709289433
0
VERTEX
8
0
70
0
10
8.235740852212079
20
3.186957166554773
0
VERTEX
8
0
70
0
10
8.290267712171474
20
3.221186333300153
0
VERTEX
8
0
70
0
10
8.348952627650501
20
3.251290363543532
0
VERTEX
8
0
70
0
10
8.41265426874944
20
3.2764880243789776
0
VERTEX
8
0
70
0
10
8.480636782178626
20
3.2976058112848534
0
VERTEX
8
0
70
0
10
8.553254791161852
20
3.314369133473541
0
VERTEX
8
0
70
0
10
8.626112825507342
20
3.3311878637150976
0
VERTEX
8
0
70
0
10
8.711899074442961
20
3.335639909878523
0
VERTEX
8
0
70
0
10
8.80047871181206
20
3.3378095633915095
0
VERTEX
8
0
70
0
10
8.897370961965116
20
3.3323960582564283
0
VERTEX
8
0
70
0
10
9.000533702678476
20
3.3214956848348116
0
VERTEX
8
0
70
0
10
9.102391564060616
20
3.3124510021927236
0
VERTEX
8
0
70
0
10
9.202023450088126
20
3.3061076835018604
0
VERTEX
8
0
70
0
10
9.29194642523892
20
3.3095023522858966
0
VERTEX
8
0
70
0
10
9.36817535534533
20
3.326226053364838
0
VERTEX
8
0
70
0
10
9.443714873395793
20
3.343890821415762
0
VERTEX
8
0
70
0
10
9.51137365313285
20
3.369178743682191
0
VERTEX
8
0
70
0
10
9.579441658612648
20
3.394293734691434
0
VERTEX
8
0
70
0
10
9.64593456604041
20
3.421069202425528
0
VERTEX
8
0
70
0
10
9.71154624492352
20
3.4488460960006186
0
VERTEX
8
0
70
0
10
9.776664880822223
20
3.4772578563735337
0
VERTEX
8
0
70
0
10
9.841878563928221
20
3.5057642246559766
0
VERTEX
8
0
70
0
10
9.907538704550003
20
3.534049517758014
0
VERTEX
8
0
70
0
10
9.97038059643917
20
3.5650512223279023
0
VERTEX
8
0
70
0
10
10.032576445614824
20
3.596791004783917
0
VERTEX
8
0
70
0
10
10.092194410846748
20
3.6309784483769505
0
VERTEX
8
0
70
0
10
10.15228372085314
20
3.66488308600033
0
VERTEX
8
0
70
0
10
10.209344212452166
20
3.7015939072149777
0
VERTEX
8
0
70
0
10
10.266730104811593
20
3.7381346156997637
0
VERTEX
8
0
70
0
10
10.32313346824441
20
3.7756515378422932
0
VERTEX
8
0
70
0
10
10.377132667168423
20
3.815368240761792
0
VERTEX
8
0
70
0
10
10.431741058864247
20
3.8546536841069994
0
VERTEX
8
0
70
0
10
10.486867690498494
20
3.8935953423299026
0
VERTEX
8
0
70
0
10
10.543215557848693
20
3.9315992410175653
0
VERTEX
8
0
70
0
10
10.60126915489088
20
3.9682682457493783
0
VERTEX
8
0
70
0
10
10.660129552949666
20
4.004386053253679
0
VERTEX
8
0
70
0
10
10.720360388798518
20
4.039486727935092
0
VERTEX
8
0
70
0
10
10.78073516158608
20
4.074618123194309
0
VERTEX
8
0
70
0
10
10.841269923509019
20
4.109769174486598
0
VERTEX
8
0
70
0
10
10.901895896006904
20
4.1449997314811
0
VERTEX
8
0
70
0
10
10.961909889396983
20
4.180895424783667
0
VERTEX
8
0
70
0
10
11.020572205055839
20
4.218062241098185
0
VERTEX
8
0
70
0
10
11.078477651355758
20
4.255997229254451
0
VERTEX
8
0
70
0
10
11.135227382121386
20
4.295020759319701
0
VERTEX
8
0
70
0
10
11.191559669095035
20
4.334519318814397
0
VERTEX
8
0
70
0
10
11.247338957863276
20
4.37460024644983
0
VERTEX
8
0
70
0
10
11.302873000163602
20
4.415010036812962
0
VERTEX
8
0
70
0
10
11.359228997044687
20
4.454886368208463
0
VERTEX
8
0
70
0
10
11.414523510535819
20
4.495752325737239
0
VERTEX
8
0
70
0
10
11.471005424496171
20
4.535798381416445
0
VERTEX
8
0
70
0
10
11.527417842679936
20
4.57603933542558
0
VERTEX
8
0
70
0
10
11.58424311607359
20
4.61609236624842
0
VERTEX
8
0
70
0
10
11.641624770186484
20
4.655848649178633
0
VERTEX
8
0
70
0
10
11.700109574704829
20
4.694882903839037
0
VERTEX
8
0
70
0
10
11.75790263723623
20
4.734616077235316
0
VERTEX
8
0
70
0
10
11.81600321103873
20
4.774260686008379
0
VERTEX
8
0
70
0
10
11.87353877912947
20
4.814500821145426
0
VERTEX
8
0
70
0
10
11.930082793722766
20
4.855664091782618
0
VERTEX
8
0
70
0
10
11.98185208417687
20
4.900673230607868
0
VERTEX
8
0
70
0
10
12.026144274069505
20
4.9515758263269625
0
VERTEX
8
0
70
0
10
12.069535874751
20
5.003255102268064
0
VERTEX
8
0
70
0
10
12.109519147713048
20
5.057628157315808
0
VERTEX
8
0
70
0
10
12.143810124633173
20
5.116415067393643
0
VERTEX
8
0
70
0
10
12.177207708548936
20
5.175921193839336
0
VERTEX
8
0
70
0
10
12.206902946804743
20
5.238273963953077
0
VERTEX
8
0
70
0
10
12.235563748892432
20
5.301431177766304
0
VERTEX
8
0
70
0
10
12.26516491439279
20
5.363900191309337
0
VERTEX
8
0
70
0
10
12.293670760454152
20
5.427220711879713
0
VERTEX
8
0
70
0
10
12.323118000577118
20
5.489862984322286
0
VERTEX
8
0
70
0
10
12.358889489398416
20
5.547819137597205
0
VERTEX
8
0
70
0
10
12.400808364750397
20
5.601268694288862
0
VERTEX
8
0
70
0
10
12.443041871723135
20
5.65458364361788
0
VERTEX
8
0
70
0
10
12.488901181374201
20
5.705319641154574
0
VERTEX
8
0
70
0
10
12.543871447882028
20
5.74945958737251
0
VERTEX
8
0
70
0
10
12.606250914166779
20
5.788316911046714
0
VERTEX
8
0
70
0
10
12.670217434715108
20
5.826207670185745
0
VERTEX
8
0
70
0
10
12.680328962285962
20
5.831371058685061
0
VERTEX
8
0
70
0
10
12.75579945443651
20
5.8594519697346215
0
VERTEX
8
0
70
0
10
12.822617910429782
20
5.89449660868522
0
VERTEX
8
0
70
0
10
12.880446464929737
20
5.935880916996815
0
VERTEX
8
0
70
0
10
12.928947252600333
20
5.982980836129364
0
VERTEX
8
0
70
0
10
12.96778240810554
20
6.0351723075428225
0
VERTEX
8
0
70
0
10
12.99661406610931
20
6.091831272697146
0
VERTEX
8
0
70
0
10
13.015104361275606
20
6.15233367305229
0
VERTEX
8
0
70
0
10
13.022915428268389
20
6.216055450068211
0
VERTEX
8
0
70
0
10
13.01970940175162
20
6.282372545204868
0
VERTEX
8
0
70
0
10
13.005148416389263
20
6.3506608999222145
0
VERTEX
8
0
70
0
10
12.978894606845275
20
6.420296455680212
0
VERTEX
8
0
70
0
10
12.940610107783614
20
6.490655153938807
0
VERTEX
8
0
70
0
10
12.735597903692186
20
6.709762914483797
0
VERTEX
8
0
70
0
10
12.610909608154266
20
6.88252718448495
0
VERTEX
8
0
70
0
10
12.529176033678253
20
7.024457812936671
0
VERTEX
8
0
70
0
10
12.454440762603648
20
7.161142988302345
0
VERTEX
8
0
70
0
10
12.401250977362348
20
7.282406463354697
0
VERTEX
8
0
70
0
10
12.350220086457542
20
7.40196474459994
0
VERTEX
8
0
70
0
10
12.310682390964894
20
7.513309775239307
0
VERTEX
8
0
70
0
10
12.277776616895828
20
7.61990025914373
0
VERTEX
8
0
70
0
10
12.254499902629773
20
7.719691762002473
0
VERTEX
8
0
70
0
10
12.242687513938405
20
7.811465784716862
0
VERTEX
8
0
70
0
10
12.235790120575624
20
7.899820366804896
0
VERTEX
8
0
70
0
10
12.229040628181592
20
7.988077322867184
0
VERTEX
8
0
70
0
10
12.235666243432833
20
8.067126684738938
0
VERTEX
8
0
70
0
10
12.243768373881995
20
8.145217502972894
0
VERTEX
8
0
70
0
10
12.255816295545674
20
8.220666395370298
0
VERTEX
8
0
70
0
10
12.277578639104998
20
8.28954768226383
0
VERTEX
8
0
70
0
10
12.299963644474165
20
8.358116738434468
0
VERTEX
8
0
70
0
10
12.32848476856482
20
8.4226228669656
0
VERTEX
8
0
70
0
10
12.360282208006662
20
8.485039801453961
0
VERTEX
8
0
70
0
10
12.392564786686636
20
8.547276794858416
0
VERTEX
8
0
70
0
10
12.430882117434738
20
8.60558218059376
0
VERTEX
8
0
70
0
10
12.469590315164197
20
8.663794634870936
0
VERTEX
8
0
70
0
10
12.511327026078739
20
8.720139747221285
0
VERTEX
8
0
70
0
10
12.55805770177722
20
8.773310064900496
0
VERTEX
8
0
70
0
10
12.605759646955693
20
8.826026420157923
0
VERTEX
8
0
70
0
10
12.653200305730065
20
8.8791186259276
0
VERTEX
8
0
70
0
10
12.702661538022
20
8.931061466949348
0
VERTEX
8
0
70
0
10
12.754068158809943
20
8.981913795379139
0
VERTEX
8
0
70
0
10
12.807941516901503
20
9.031336887188704
0
VERTEX
8
0
70
0
10
12.861953382916603
20
9.080887045326861
0
VERTEX
8
0
70
0
10
12.914894887145364
20
9.13136622233204
0
VERTEX
8
0
70
0
10
12.968128404847956
20
9.181869178930047
0
VERTEX
8
0
70
0
10
13.021691598302166
20
9.232372368097238
0
VERTEX
8
0
70
0
10
13.075166904257525
20
9.2831523948527
0
VERTEX
8
0
70
0
10
13.12852543734852
20
9.334228106916267
0
VERTEX
8
0
70
0
10
13.179858205385258
20
9.38685255418154
0
VERTEX
8
0
70
0
10
13.232033290031833
20
9.439139078503857
0
VERTEX
8
0
70
0
10
13.28405698482413
20
9.491740985008278
0
VERTEX
8
0
70
0
10
13.336290800061366
20
9.544421939892416
0
VERTEX
8
0
70
0
10
13.388201392573933
20
9.5975305494674
0
VERTEX
8
0
70
0
10
13.440128132238994
20
9.650845141350807
0
VERTEX
8
0
70
0
10
13.492541157032129
20
9.704060680782735
0
VERTEX
8
0
70
0
10
13.540056163716994
20
9.760670073158039
0
VERTEX
8
0
70
0
10
13.584887197219564
20
9.819224238943598
0
VERTEX
8
0
70
0
10
13.626538114993586
20
9.880035430431754
0
VERTEX
8
0
70
0
10
13.668234550138376
20
9.94101309409993
0
VERTEX
8
0
70
0
10
13.70450474025994
20
10.00568204195515
0
VERTEX
8
0
70
0
10
13.737947219304177
20
10.072355061634283
0
VERTEX
8
0
70
0
10
13.769185880348232
20
10.140623757285336
0
VERTEX
8
0
70
0
10
13.802868747923215
20
10.207503355039126
0
VERTEX
8
0
70
0
10
13.83831672881133
20
10.273436897413408
0
VERTEX
8
0
70
0
10
13.879476869317074
20
10.335908804265252
0
VERTEX
8
0
70
0
10
13.922208259943098
20
10.397578437540508
0
VERTEX
8
0
70
0
10
13.972075279876998
20
10.454906737323988
0
VERTEX
8
0
70
0
10
14.021849436689054
20
10.51251215426928
0
VERTEX
8
0
70
0
10
14.072889532767332
20
10.569531829943113
0
VERTEX
8
0
70
0
10
14.123302723869486
20
10.627169938409194
0
VERTEX
8
0
70
0
10
14.164818368512181
20
10.690662061820714
0
VERTEX
8
0
70
0
10
14.203984587192322
20
10.755843899885587
0
VERTEX
8
0
70
0
10
14.241335408916033
20
10.822372579052827
0
VERTEX
8
0
70
0
10
14.27838174863067
20
10.889291331570535
0
VERTEX
8
0
70
0
10
14.314206604698212
20
10.95717751570563
0
VERTEX
8
0
70
0
10
14.348850866650169
20
11.026003039083289
0
VERTEX
8
0
70
0
10
14.384132639944662
20
11.094624043241861
0
VERTEX
8
0
70
0
10
14.420691344711411
20
11.162641988495277
0
VERTEX
8
0
70
0
10
14.455777232773587
20
11.231782951699921
0
VERTEX
8
0
70
0
10
14.48979604292151
20
11.301790321327468
0
VERTEX
8
0
70
0
10
14.517801626265062
20
11.375751980118642
0
VERTEX
8
0
70
0
10
14.548248300382262
20
11.448380109338006
0
VERTEX
8
0
70
0
10
14.575210446316117
20
11.523373611338771
0
VERTEX
8
0
70
0
10
14.599854515326733
20
11.599999463895884
0
VERTEX
8
0
70
0
10
14.624507065390208
20
11.676807339835749
0
VERTEX
8
0
70
0
10
14.635410344286983
20
11.748921577275723
0
VERTEX
8
0
70
0
10
14.65046769432736
20
11.800536027436138
0
VERTEX
8
0
70
0
10
14.667918735778606
20
11.853636589661033
0
VERTEX
8
0
70
0
10
14.687622451316855
20
11.907968635461405
0
VERTEX
8
0
70
0
10
14.70943782361823
20
11.963277536348242
0
VERTEX
8
0
70
0
10
14.733223835358856
20
12.01930866383253
0
VERTEX
8
0
70
0
10
14.758839469214866
20
12.075807389425263
0
VERTEX
8
0
70
0
10
14.786143707862383
20
12.132519084637426
0
VERTEX
8
0
70
0
10
14.814995533977541
20
12.189189120980013
0
VERTEX
8
0
70
0
10
14.845253930236463
20
12.245562869964008
0
VERTEX
8
0
70
0
10
14.87677787931527
20
12.301385703100406
0
VERTEX
8
0
70
0
10
14.909426363890098
20
12.356402991900195
0
VERTEX
8
0
70
0
10
14.943058366637075
20
12.410360107874364
0
VERTEX
8
0
70
0
10
14.977532870232327
20
12.463002422533906
0
VERTEX
8
0
70
0
10
15.012708857351978
20
12.514075307389804
0
VERTEX
8
0
70
0
10
15.048445310672161
20
12.563324133953053
0
VERTEX
8
0
70
0
10
15.084601212868996
20
12.61049427373464
0
VERTEX
8
0
70
0
10
15.121035546618618
20
12.655331098245556
0
VERTEX
8
0
70
0
10
15.157607294597149
20
12.697579978996792
0
VERTEX
8
0
70
0
10
15.19417543948072
20
12.736986287499333
0
VERTEX
8
0
70
0
10
15.197150563712146
20
12.75228090987731
0
VERTEX
8
0
70
0
10
15.192071813283928
20
12.816495502069097
0
VERTEX
8
0
70
0
10
15.16957467270008
20
12.880583378117617
0
VERTEX
8
0
70
0
10
15.12960721323591
20
12.943372322827221
0
VERTEX
8
0
70
0
10
15.07211750616672
20
13.003690121002265
0
VERTEX
8
0
70
0
10
14.997053622767826
20
13.060364557447086
0
VERTEX
8
0
70
0
10
13.09731082502621
20
14.294011217253392
0
VERTEX
8
0
70
0
10
12.951522499607396
20
14.477235506360476
0
VERTEX
8
0
70
0
10
12.844751339873921
20
14.636751777915018
0
VERTEX
8
0
70
0
10
12.757911111007818
20
14.784232565237618
0
VERTEX
8
0
70
0
10
12.681624079379201
20
14.925410157380606
0
VERTEX
8
0
70
0
10
12.616629551874079
20
15.059856710454904
0
VERTEX
8
0
70
0
10
12.562959118159885
20
15.187574432173726
0
VERTEX
8
0
70
0
10
12.523604043392442
20
15.30677229589137
0
VERTEX
8
0
70
0
10
12.48594873576794
20
15.425110006640608
0
VERTEX
8
0
70
0
10
12.455621782413798
20
15.539188907800119
0
VERTEX
8
0
70
0
10
12.426406456920834
20
15.652778226112037
0
VERTEX
8
0
70
0
10
12.400217272384463
20
15.764725824613315
0
VERTEX
8
0
70
0
10
12.380994125342651
20
15.872661502074344
0
VERTEX
8
0
70
0
10
12.366055988041403
20
15.97821300394426
0
VERTEX
8
0
70
0
10
12.365925645321617
20
16.075050668553605
0
VERTEX
8
0
70
0
10
12.367741915023185
20
16.170936310680155
0
VERTEX
8
0
70
0
10
12.37293353398742
20
16.26501463121378
0
VERTEX
8
0
70
0
10
12.380343465504113
20
16.357986547671764
0
VERTEX
8
0
70
0
10
12.387940356591672
20
16.451075762861223
0
VERTEX
8
0
70
0
10
12.396732533558012
20
16.543678504975396
0
VERTEX
8
0
70
0
10
12.40594135215303
20
16.636264151301738
0
VERTEX
8
0
70
0
10
12.4150169564376
20
16.729163635055862
0
VERTEX
8
0
70
0
10
12.425497289130677
20
16.821456865785944
0
VERTEX
8
0
70
0
10
12.437710169799397
20
16.91295032139463
0
VERTEX
8
0
70
0
10
12.450365434526267
20
17.00441842787246
0
VERTEX
8
0
70
0
10
12.467274495849402
20
17.0935849525314
0
VERTEX
8
0
70
0
10
12.48504073159
20
17.182484046993082
0
VERTEX
8
0
70
0
10
12.506346901844445
20
17.2695163041408
0
VERTEX
8
0
70
0
10
12.529989488024675
20
17.355404196371353
0
VERTEX
8
0
70
0
10
12.557747624984971
20
17.439090385709548
0
VERTEX
8
0
70
0
10
12.58748822841189
20
17.52185059789649
0
VERTEX
8
0
70
0
10
12.619642279438557
20
17.603430816758703
0
VERTEX
8
0
70
0
10
12.655220041034672
20
17.68323283740748
0
VERTEX
8
0
70
0
10
12.692254737611519
20
17.76243018100848
0
VERTEX
8
0
70
0
10
12.73259373009542
20
17.839926606812455
0
VERTEX
8
0
70
0
10
12.775537597230635
20
17.91614113257772
0
VERTEX
8
0
70
0
10
12.821965635243625
20
17.990554416876805
0
VERTEX
8
0
70
0
10
12.869735758614341
20
18.064441094609805
0
VERTEX
8
0
70
0
10
12.920834839184755
20
18.13662406937828
0
VERTEX
8
0
70
0
10
12.973005317000714
20
18.208444793707663
0
VERTEX
8
0
70
0
10
13.026688762001358
20
18.2796426279859
0
VERTEX
8
0
70
0
10
13.084687477290673
20
18.348559238202714
0
VERTEX
8
0
70
0
10
13.14463156705009
20
18.416601193131484
0
VERTEX
8
0
70
0
10
13.203938236576336
20
18.48529830097305
0
VERTEX
8
0
70
0
10
13.263484319883245
20
18.554131389805796
0
VERTEX
8
0
70
0
10
13.326397043526697
20
18.62125184429378
0
VERTEX
8
0
70
0
10
13.388076229299513
20
18.689380545569716
0
VERTEX
8
0
70
0
10
13.448267214275605
20
18.758666892331036
0
VERTEX
8
0
70
0
10
13.510682847910118
20
18.826917535921464
0
VERTEX
8
0
70
0
10
13.577719221905074
20
18.892719854504563
0
VERTEX
8
0
70
0
10
13.644875343510815
20
18.958732403635526
0
VERTEX
8
0
70
0
10
13.715310206590079
20
19.023092138620648
0
VERTEX
8
0
70
0
10
13.79407123658789
20
19.082825542805978
0
VERTEX
8
0
70
0
10
13.87689368235438
20
19.140451018296947
0
VERTEX
8
0
70
0
10
13.965953716159593
20
19.194688829338528
0
VERTEX
8
0
70
0
10
14.060621511944971
20
19.245913310943102
0
VERTEX
8
0
70
0
10
14.161853218933395
20
19.293564458303905
0
VERTEX
8
0
70
0
10
14.264989671900025
20
19.34038742406
0
VERTEX
8
0
70
0
10
14.390216237073957
20
19.374507432938636
0
VERTEX
8
0
70
0
10
14.285062690175822
20
19.760438287062037
0
VERTEX
8
0
70
0
10
14.159836127969776
20
19.72631827753441
0
VERTEX
8
0
70
0
10
14.099635683222111
20
19.704609887091475
0
VERTEX
8
0
70
0
10
13.996499232705794
20
19.65778692042371
0
VERTEX
8
0
70
0
10
13.991496888337066
20
19.655474209317518
0
VERTEX
8
0
70
0
10
13.890265183754241
20
19.607823061027776
0
VERTEX
8
0
70
0
10
13.870262805695226
20
19.59771371931322
0
VERTEX
8
0
70
0
10
13.775595012161586
20
19.546489236705703
0
VERTEX
8
0
70
0
10
13.757898026988627
20
19.536321395074562
0
VERTEX
8
0
70
0
10
13.668837995303697
20
19.482083582967622
0
VERTEX
8
0
70
0
10
13.648441197352184
20
19.468794528132626
0
VERTEX
8
0
70
0
10
13.565618753559761
20
19.411169051506135
0
VERTEX
8
0
70
0
10
13.552358277016584
20
19.401533646626476
0
VERTEX
8
0
70
0
10
13.47359724889761
20
19.341800241261915
0
VERTEX
8
0
70
0
10
13.44548863856949
20
19.318382436675364
0
VERTEX
8
0
70
0
10
13.37505377717393
20
19.254022700415263
0
VERTEX
8
0
70
0
10
13.364471513753333
20
19.243993233724517
0
VERTEX
8
0
70
0
10
13.297415580919077
20
19.178079164409475
0
VERTEX
8
0
70
0
10
13.230479464843972
20
19.112375255248732
0
VERTEX
8
0
70
0
10
13.215503394127497
20
19.096860405658134
0
VERTEX
8
0
70
0
10
13.153087761988564
20
19.02860976071188
0
VERTEX
8
0
70
0
10
13.146299514552005
20
19.020994126452777
0
VERTEX
8
0
70
0
10
13.08879581412218
20
18.95480113252905
0
VERTEX
8
0
70
0
10
13.03218849224083
20
18.89227463443718
0
VERTEX
8
0
70
0
10
12.97164155197094
20
18.827678188893806
0
VERTEX
8
0
70
0
10
12.960970826048845
20
18.815829023244838
0
VERTEX
8
0
70
0
10
12.901424744169942
20
18.74699593304365
0
VERTEX
8
0
70
0
10
12.90115932618479
20
18.746688804753695
0
VERTEX
8
0
70
0
10
12.843165139944428
20
18.67951199187723
0
VERTEX
8
0
70
0
10
12.784548734189476
20
18.61297707526803
0
VERTEX
8
0
70
0
10
12.778643208391184
20
18.606118882550856
0
VERTEX
8
0
70
0
10
12.720644494493362
20
18.537202270963444
0
VERTEX
8
0
70
0
10
12.707303303101067
20
18.520460004944816
0
VERTEX
8
0
70
0
10
12.653619859390744
20
18.4492621692487
0
VERTEX
8
0
70
0
10
12.649376057894344
20
18.443528155903856
0
VERTEX
8
0
70
0
10
12.597205581333178
20
18.37170743014358
0
VERTEX
8
0
70
0
10
12.594359615580125
20
18.367738792549993
0
VERTEX
8
0
70
0
10
12.54326053623932
20
18.295555816343004
0
VERTEX
8
0
70
0
10
12.533826731779032
20
18.28161665562523
0
VERTEX
8
0
70
0
10
12.486056609559858
20
18.20772997641837
0
VERTEX
8
0
70
0
10
12.482601581259635
20
18.202290434303972
0
VERTEX
8
0
70
0
10
12.43617354436667
20
18.127877148520014
0
VERTEX
8
0
70
0
10
12.42705016997196
20
18.11249954893556
0
VERTEX
8
0
70
0
10
12.384106303875068
20
18.036285021648062
0
VERTEX
8
0
70
0
10
12.37778328086646
20
18.024614637196695
0
VERTEX
8
0
70
0
10
12.337444289359778
20
17.94711820984387
0
VERTEX
8
0
70
0
10
12.329914414899527
20
17.931869331036772
0
VERTEX
8
0
70
0
10
12.292879719222414
20
17.85267198585164
0
VERTEX
8
0
70
0
10
12.289882582909282
20
17.84610911230441
0
VERTEX
8
0
70
0
10
12.25430482217869
20
17.76630709005887
0
VERTEX
8
0
70
0
10
12.247504110262492
20
17.75010506171921
0
VERTEX
8
0
70
0
10
12.215350060021073
20
17.66852484122336
0
VERTEX
8
0
70
0
10
12.211056079310245
20
17.657124379720763
0
VERTEX
8
0
70
0
10
12.181315476611957
20
17.57436416587568
0
VERTEX
8
0
70
0
10
12.178087597142595
20
17.565020637581547
0
VERTEX
8
0
70
0
10
12.150329460864413
20
17.481334446565945
0
VERTEX
8
0
70
0
10
12.144333914656537
20
17.461564252740835
0
VERTEX
8
0
70
0
10
12.120691329061938
20
17.375676358787267
0
VERTEX
8
0
70
0
10
12.117819570918238
20
17.36463044145553
0
VERTEX
8
0
70
0
10
12.096513401194622
20
17.27759818256102
0
VERTEX
8
0
70
0
10
12.092796631608884
20
17.26087258597991
0
VERTEX
8
0
70
0
10
12.07503039631612
20
17.17197348973274
0
VERTEX
8
0
70
0
10
12.074278100520079
20
17.168110332848954
0
VERTEX
8
0
70
0
10
12.057369039624618
20
17.078943806398872
0
VERTEX
8
0
70
0
10
12.054139562046005
20
17.059238768709072
0
VERTEX
8
0
70
0
10
12.041484297647099
20
16.967770660392432
0
VERTEX
8
0
70
0
10
12.041226514377502
20
16.965874073858778
0
VERTEX
8
0
70
0
10
12.029013634026311
20
16.874380616410647
0
VERTEX
8
0
70
0
10
12.028051241600263
20
16.866588413526394
0
VERTEX
8
0
70
0
10
12.017570909184057
20
16.774295180940214
0
VERTEX
8
0
70
0
10
12.016911868734747
20
16.768055281247474
0
VERTEX
8
0
70
0
10
12.007870352258815
20
16.675504721956898
0
VERTEX
8
0
70
0
10
11.99869623306868
20
16.583267939812487
0
VERTEX
8
0
70
0
10
11.998523043483392
20
16.58148621641289
0
VERTEX
8
0
70
0
10
11.989730866754154
20
16.488883472435873
0
VERTEX
8
0
70
0
10
11.989265430574092
20
16.483610782841843
0
VERTEX
8
0
70
0
10
11.981668539695566
20
16.390521565779373
0
VERTEX
8
0
70
0
10
11.981607581070685
20
16.389765767806743
0
VERTEX
8
0
70
0
10
11.974197649758574
20
16.29679384947805
0
VERTEX
8
0
70
0
10
11.973540896027814
20
16.28705439480424
0
VERTEX
8
0
70
0
10
11.96834927721613
20
16.192976072376936
0
VERTEX
8
0
70
0
10
11.967813350653136
20
16.17851145890325
0
VERTEX
8
0
70
0
10
11.965997081024994
20
16.082625814845585
0
VERTEX
8
0
70
0
10
11.965925702494111
20
16.07451196115937
0
VERTEX
8
0
70
0
10
11.966056045241658
20
15.97767429459913
0
VERTEX
8
0
70
0
10
11.970002338679942
20
15.922161386593023
0
VERTEX
8
0
70
0
10
11.984940475662068
20
15.816609882592125
0
VERTEX
8
0
70
0
10
11.987190579188319
20
15.802525547522205
0
VERTEX
8
0
70
0
10
12.006413725810585
20
15.694589867880852
0
VERTEX
8
0
70
0
10
12.010732959806438
20
15.673609048659324
0
VERTEX
8
0
70
0
10
12.036922143760048
20
15.561661447894764
0
VERTEX
8
0
70
0
10
12.039014442691705
20
15.553140236128831
0
VERTEX
8
0
70
0
10
12.06822976753097
20
15.439550915519632
0
VERTEX
8
0
70
0
10
12.069048237639649
20
15.436421214759266
0
VERTEX
8
0
70
0
10
12.099375190314
20
15.322342311292271
0
VERTEX
8
0
70
0
10
12.104780348872989
20
15.303821198321216
0
VERTEX
8
0
70
0
10
12.142435655646011
20
15.185483485176453
0
VERTEX
8
0
70
0
10
12.143771036037343
20
15.181364146734772
0
VERTEX
8
0
70
0
10
12.18312610991344
20
15.06216628060375
0
VERTEX
8
0
70
0
10
12.194195857159091
20
15.032609955349228
0
VERTEX
8
0
70
0
10
12.247866289646618
20
14.904892231041005
0
VERTEX
8
0
70
0
10
12.256502281984321
20
14.885762797191436
0
VERTEX
8
0
70
0
10
12.321496807997521
20
14.75131624138871
0
VERTEX
8
0
70
0
10
12.329714907889944
20
14.735251581015474
0
VERTEX
8
0
70
0
10
12.406001937762126
20
14.594073986004995
0
VERTEX
8
0
70
0
10
12.413225823289968
20
14.58127343560701
0
VERTEX
8
0
70
0
10
12.50006605015245
20
14.433792645286704
0
VERTEX
8
0
70
0
10
12.512342134017443
20
14.414255745683091
0
VERTEX
8
0
70
0
10
12.61911329128049
20
14.254739470882273
0
VERTEX
8
0
70
0
10
12.638516492749797
20
14.22818207059018
0
VERTEX
8
0
70
0
10
12.784304814784406
20
14.04495777774725
0
VERTEX
8
0
70
0
10
12.879462429111504
20
13.958537736966154
0
VERTEX
8
0
70
0
10
14.202766548784439
20
13.099216264105713
0
VERTEX
8
0
70
0
10
14.256113880469062
20
13.060421801362581
0
VERTEX
8
0
70
0
10
14.304252031773197
20
13.016986014987287
0
VERTEX
8
0
70
0
10
14.347061797159249
20
12.969406270025706
0
VERTEX
8
0
70
0
10
14.384423971089596
20
12.918179931523712
0
VERTEX
8
0
70
0
10
14.416219348026646
20
12.863804364527187
0
VERTEX
8
0
70
0
10
14.442328722432787
20
12.806776934081999
0
VERTEX
8
0
70
0
10
14.46263288877041
20
12.747595005234025
0
VERTEX
8
0
70
0
10
14.477012641501915
20
12.686755943029144
0
VERTEX
8
0
70
0
10
14.485348775089696
20
12.624757112513231
0
VERTEX
8
0
70
0
10
14.487522083996142
20
12.562095878732167
0
VERTEX
8
0
70
0
10
14.48341336268365
20
12.499269606731817
0
VERTEX
8
0
70
0
10
14.472903405614614
20
12.436775661558068
0
VERTEX
8
0
70
0
10
14.455873007251427
20
12.375111408256787
0
VERTEX
8
0
70
0
10
14.432202962056486
20
12.314774211873855
0
VERTEX
8
0
70
0
10
14.401774064492184
20
12.256261437455146
0
VERTEX
8
0
70
0
10
14.39843498135141
20
12.249326064665748
0
VERTEX
8
0
70
0
10
14.394533327468528
20
12.240977513250566
0
VERTEX
8
0
70
0
10
14.368917694235382
20
12.184478786527484
0
VERTEX
8
0
70
0
10
14.365026755040267
20
12.175613025692435
0
VERTEX
8
0
70
0
10
14.341240743879153
20
12.119581897086652
0
VERTEX
8
0
70
0
10
14.337336124840132
20
12.110044285419216
0
VERTEX
8
0
70
0
10
14.315520753071505
20
12.054735383424829
0
VERTEX
8
0
70
0
10
14.311586183173661
20
12.044339042998073
0
VERTEX
8
0
70
0
10
14.291882468117986
20
11.990006996109186
0
VERTEX
8
0
70
0
10
14.287913559964455
20
11.978521498575292
0
VERTEX
8
0
70
0
10
14.2704625189422
20
11.925420935286002
0
VERTEX
8
0
70
0
10
14.266473606893832
20
11.912557129204538
0
VERTEX
8
0
70
0
10
14.251416257225443
20
11.860942678008932
0
VERTEX
8
0
70
0
10
14.239905022990694
20
11.808719370288252
0
VERTEX
8
0
70
0
10
14.233811449129341
20
11.768416498409943
0
VERTEX
8
0
70
0
10
14.21902731085633
20
11.722354800689729
0
VERTEX
8
0
70
0
10
14.196499648987265
20
11.65230949391966
0
VERTEX
8
0
70
0
10
14.175343572960255
20
11.593465205174635
0
VERTEX
8
0
70
0
10
14.148904893272109
20
11.53039782636582
0
VERTEX
8
0
70
0
10
14.143720412205267
20
11.517397300068
0
VERTEX
8
0
70
0
10
14.122118956620303
20
11.460348691623029
0
VERTEX
8
0
70
0
10
14.097513461821062
20
11.40971299807469
0
VERTEX
8
0
70
0
10
14.06612528793862
20
11.347858822754631
0
VERTEX
8
0
70
0
10
14.031800496444724
20
11.28399709935044
0
VERTEX
8
0
70
0
10
14.028398131985524
20
11.277525823293333
0
VERTEX
8
0
70
0
10
13.993116359546008
20
11.208904817763157
0
VERTEX
8
0
70
0
10
13.991561638697618
20
11.20584883782838
0
VERTEX
8
0
70
0
10
13.9586476932785
20
11.14046081994398
0
VERTEX
8
0
70
0
10
13.926488507272598
20
11.079520881616997
0
VERTEX
8
0
70
0
10
13.891960352994712
20
11.017150857186534
0
VERTEX
8
0
70
0
10
13.858081551010251
20
10.956806480723102
0
VERTEX
8
0
70
0
10
13.825871184810282
20
10.903200821637073
0
VERTEX
8
0
70
0
10
13.803816221768155
20
10.8694709709016
0
VERTEX
8
0
70
0
10
13.773318833071718
20
10.834602877129383
0
VERTEX
8
0
70
0
10
13.723810992581603
20
10.779294965336128
0
VERTEX
8
0
70
0
10
13.719182337813194
20
10.77403197604124
0
VERTEX
8
0
70
0
10
13.669840905797177
20
10.716927364518329
0
VERTEX
8
0
70
0
10
13.620408265603382
20
10.66009843541517
0
VERTEX
8
0
70
0
10
13.593423459412284
20
10.625395442500315
0
VERTEX
8
0
70
0
10
13.550692069814934
20
10.56372580799578
0
VERTEX
8
0
70
0
10
13.545457565924567
20
10.555979580372869
0
VERTEX
8
0
70
0
10
13.50429742641065
20
10.493507672275102
0
VERTEX
8
0
70
0
10
13.486006023049177
20
10.462849792465589
0
VERTEX
8
0
70
0
10
13.450558043019102
20
10.396916248773897
0
VERTEX
8
0
70
0
10
13.445618400041841
20
10.387426331101572
0
VERTEX
8
0
70
0
10
13.411935533283522
20
10.32054673201077
0
VERTEX
8
0
70
0
10
13.405456445673167
20
10.307059935328624
0
VERTEX
8
0
70
0
10
13.377195277309903
20
10.245298223310527
0
VERTEX
8
0
70
0
10
13.351106772200353
20
10.19328654411597
0
VERTEX
8
0
70
0
10
13.328036206499556
20
10.152152233235
0
VERTEX
8
0
70
0
10
13.296437857856347
20
10.10594220222988
0
VERTEX
8
0
70
0
10
13.26085306257103
20
10.053987671308203
0
VERTEX
8
0
70
0
10
13.227908339267138
20
10.010958306956208
0
VERTEX
8
0
70
0
10
13.196391052718303
20
9.973408601218548
0
VERTEX
8
0
70
0
10
13.155144411442903
20
9.931530415977655
0
VERTEX
8
0
70
0
10
13.15358006324721
20
9.929933211779847
0
VERTEX
8
0
70
0
10
13.101901638409313
20
9.876873569140514
0
VERTEX
8
0
70
0
10
13.051238709753363
20
9.825041415325792
0
VERTEX
8
0
70
0
10
13.000011067981491
20
9.77337524484049
0
VERTEX
8
0
70
0
10
12.99965516211976
20
9.773015838075615
0
VERTEX
8
0
70
0
10
12.948258661158258
20
9.72104809400474
0
VERTEX
8
0
70
0
10
12.896713592233096
20
9.669392928780216
0
VERTEX
8
0
70
0
10
12.893522919520592
20
9.666158916708177
0
VERTEX
8
0
70
0
10
12.846977928324117
20
9.618442718349662
0
VERTEX
8
0
70
0
10
12.799149261201928
20
9.572660287767995
0
VERTEX
8
0
70
0
10
12.746767538718496
20
9.522918723170513
0
VERTEX
8
0
70
0
10
12.693720780908793
20
9.472902464079741
0
VERTEX
8
0
70
0
10
12.692825739729313
20
9.472055948138273
0
VERTEX
8
0
70
0
10
12.639592223299829
20
9.421552990539158
0
VERTEX
8
0
70
0
10
12.638864239089795
20
9.420860608392399
0
VERTEX
8
0
70
0
10
12.58870942628766
20
9.373038510763596
0
VERTEX
8
0
70
0
10
12.537534884946327
20
9.326091295011864
0
VERTEX
8
0
70
0
10
12.537534884946327
20
9.326091295011864
0
VERTEX
8
0
70
0
10
12.483661528142644
20
9.27666820222315
0
VERTEX
8
0
70
0
10
12.472762406565574
20
9.266285024465507
0
VERTEX
8
0
70
0
10
12.421355787007709
20
9.215432695027019
0
VERTEX
8
0
70
0
10
12.412983381922935
20
9.206899280718755
0
VERTEX
8
0
70
0
10
12.363522150815488
20
9.154956438665739
0
VERTEX
8
0
70
0
10
12.354927951378894
20
9.145639823104037
0
VERTEX
8
0
70
0
10
12.30832191303078
20
9.09348166277287
0
VERTEX
8
0
70
0
10
12.26146042183859
20
9.041694107430576
0
VERTEX
8
0
70
0
10
12.257606129275068
20
9.037372177925608
0
VERTEX
8
0
70
0
10
12.210875454696989
20
8.984201859189564
0
VERTEX
8
0
70
0
10
12.189902723663577
20
8.958228805143001
0
VERTEX
8
0
70
0
10
12.14816601375252
20
8.901883691670331
0
VERTEX
8
0
70
0
10
12.136505762722367
20
8.885277553836147
0
VERTEX
8
0
70
0
10
12.097797565925477
20
8.827065098398101
0
VERTEX
8
0
70
0
10
12.096605837343594
20
8.825262339561665
0
VERTEX
8
0
70
0
10
12.05828850751886
20
8.76695695266346
0
VERTEX
8
0
70
0
10
12.03748958983086
20
8.731455109920201
0
VERTEX
8
0
70
0
10
12.005207011933006
20
8.669218115271832
0
VERTEX
8
0
70
0
10
12.00386641318294
20
8.666610257532938
0
VERTEX
8
0
70
0
10
11.972068974511824
20
8.604193321796895
0
VERTEX
8
0
70
0
10
11.962648445899783
20
8.584375323034738
0
VERTEX
8
0
70
0
10
11.934127322503151
20
8.519869193212834
0
VERTEX
8
0
70
0
10
11.919713158595224
20
8.48225247943612
0
VERTEX
8
0
70
0
10
11.897328153776481
20
8.413683421890973
0
VERTEX
8
0
70
0
10
11.896161745706161
20
8.410051918365866
0
VERTEX
8
0
70
0
10
11.874399402682656
20
8.341170630091344
0
VERTEX
8
0
70
0
10
11.860820240522017
20
8.28374011918038
0
VERTEX
8
0
70
0
10
11.84877231916686
20
8.208291225266702
0
VERTEX
8
0
70
0
10
11.845903770057461
20
8.186496514580497
0
VERTEX
8
0
70
0
10
11.83780163982449
20
8.108405694775833
0
VERTEX
8
0
70
0
10
11.837063614292516
20
8.100535536175734
0
VERTEX
8
0
70
0
10
11.830437999222903
20
8.02148617271352
0
VERTEX
8
0
70
0
10
11.830204922516197
20
7.9575757222521695
0
VERTEX
8
0
70
0
10
11.836954414778956
20
7.869318764409822
0
VERTEX
8
0
70
0
10
11.837003104781958
20
7.868688637426683
0
VERTEX
8
0
70
0
10
11.843900498010006
20
7.780334053556576
0
VERTEX
8
0
70
0
10
11.845959945512211
20
7.760401872703486
0
VERTEX
8
0
70
0
10
11.857772333953877
20
7.668627848136627
0
VERTEX
8
0
70
0
10
11.864956235468114
20
7.628828938918701
0
VERTEX
8
0
70
0
10
11.88823294921631
20
7.529037434042465
0
VERTEX
8
0
70
0
10
11.895574436398942
20
7.5019094234944355
0
VERTEX
8
0
70
0
10
11.928480209724937
20
7.395318937432595
0
VERTEX
8
0
70
0
10
11.933741054027815
20
7.379460658416477
0
VERTEX
8
0
70
0
10
11.973278748622304
20
7.268115625521876
0
VERTEX
8
0
70
0
10
11.982330020202543
20
7.244938391827922
0
VERTEX
8
0
70
0
10
12.033360909940415
20
7.125380108158463
0
VERTEX
8
0
70
0
10
12.034939890857451
20
7.121731112058196
0
VERTEX
8
0
70
0
10
12.08812967488138
20
7.000467634546606
0
VERTEX
8
0
70
0
10
12.103476400121476
20
6.969246087527591
0
VERTEX
8
0
70
0
10
12.178211669474862
20
6.832560909385403
0
VERTEX
8
0
70
0
10
12.182543578472535
20
6.8248423008168615
0
VERTEX
8
0
70
0
10
12.248731938455771
20
6.709905984910257
0
VERTEX
8
0
70
0
10
12.289072806521299
20
6.652507558053568
0
VERTEX
8
0
70
0
10
12.321625445437077
20
6.5928189235889505
0
VERTEX
8
0
70
0
10
12.34646071692422
20
6.531406852570001
0
VERTEX
8
0
70
0
10
12.36364948270384
20
6.4688381160502715
0
VERTEX
8
0
70
0
10
12.373262604497063
20
6.4056794850833825
0
VERTEX
8
0
70
0
10
12.375370944024993
20
6.342497730722897
0
VERTEX
8
0
70
0
10
12.370045363008757
20
6.2798596240223965
0
VERTEX
8
0
70
0
10
12.357356723169467
20
6.218331936035479
0
VERTEX
8
0
70
0
10
12.337375886228237
20
6.158481437815709
0
VERTEX
8
0
70
0
10
12.310173713906194
20
6.1008749004166845
0
VERTEX
8
0
70
0
10
12.275821067924442
20
6.046079094891983
0
VERTEX
8
0
70
0
10
12.234388810004107
20
5.994660792295182
0
VERTEX
8
0
70
0
10
12.185947801866304
20
5.947186763679866
0
VERTEX
8
0
70
0
10
12.130568905232144
20
5.904223780099631
0
VERTEX
8
0
70
0
10
12.129497201531873
20
5.90295770668185
0
VERTEX
8
0
70
0
10
12.08726369557339
20
5.849642756291708
0
VERTEX
8
0
70
0
10
12.086059985886546
20
5.848115599328477
0
VERTEX
8
0
70
0
10
12.044141111541432
20
5.794666041572892
0
VERTEX
8
0
70
0
10
12.018504466759241
20
5.7579096530176805
0
VERTEX
8
0
70
0
10
11.982732978801087
20
5.699953498586158
0
VERTEX
8
0
70
0
10
11.96112016986065
20
5.660032346225869
0
VERTEX
8
0
70
0
10
11.931672930452981
20
5.597390072530352
0
VERTEX
8
0
70
0
10
11.928926892217017
20
5.591421682069651
0
VERTEX
8
0
70
0
10
11.902022565141532
20
5.53165864020567
0
VERTEX
8
0
70
0
10
11.874092002233644
20
5.472715191178093
0
VERTEX
8
0
70
0
10
11.871314765711412
20
5.466727042788225
0
VERTEX
8
0
70
0
10
11.844179192470103
20
5.4069308349967855
0
VERTEX
8
0
70
0
10
11.821832364895304
20
5.3600079360376505
0
VERTEX
8
0
70
0
10
11.79661982462294
20
5.315085504538011
0
VERTEX
8
0
70
0
10
11.774695771501035
20
5.277499891293651
0
VERTEX
8
0
70
0
10
11.754915104746573
20
5.250600259274279
0
VERTEX
8
0
70
0
10
11.722073235035964
20
5.211485681913295
0
VERTEX
8
0
70
0
10
11.698381916095837
20
5.184258541284766
0
VERTEX
8
0
70
0
10
11.680684524626582
20
5.168872114750943
0
VERTEX
8
0
70
0
10
11.641181845059883
20
5.140114702097428
0
VERTEX
8
0
70
0
10
11.588642626779365
20
5.103368991473211
0
VERTEX
8
0
70
0
10
11.532448909891672
20
5.065025514418089
0
VERTEX
8
0
70
0
10
11.531289101380091
20
5.064231134869718
0
VERTEX
8
0
70
0
10
11.475764610467413
20
5.026057620185075
0
VERTEX
8
0
70
0
10
11.419569630286746
20
4.9885516512326475
0
VERTEX
8
0
70
0
10
11.413822277573246
20
4.984643120654432
0
VERTEX
8
0
70
0
10
11.356440624827988
20
4.944886836940892
0
VERTEX
8
0
70
0
10
11.353795891779134
20
4.94303862977663
0
VERTEX
8
0
70
0
10
11.29697061974007
20
4.90298559816431
0
VERTEX
8
0
70
0
10
11.2951273181175
20
4.90167854666328
0
VERTEX
8
0
70
0
10
11.239182928213822
20
4.8617714518830795
0
VERTEX
8
0
70
0
10
11.183170000282534
20
4.822057908713152
0
VERTEX
8
0
70
0
10
11.176781477139418
20
4.817433090164339
0
VERTEX
8
0
70
0
10
11.124811339673135
20
4.779024043969233
0
VERTEX
8
0
70
0
10
11.071829784707168
20
4.741535395864201
0
VERTEX
8
0
70
0
10
11.067522545254793
20
4.738444646196275
0
VERTEX
8
0
70
0
10
11.012954329634027
20
4.6987376456167915
0
VERTEX
8
0
70
0
10
10.960023360252169
20
4.660703412969994
0
VERTEX
8
0
70
0
10
10.907079519207482
20
4.623580731488566
0
VERTEX
8
0
70
0
10
10.855528587563784
20
4.588132115410158
0
VERTEX
8
0
70
0
10
10.803921089633826
20
4.5543230346931445
0
VERTEX
8
0
70
0
10
10.752173709925366
20
4.521537328598868
0
VERTEX
8
0
70
0
10
10.698737855681935
20
4.48957616403958
0
VERTEX
8
0
70
0
10
10.640350990510619
20
4.455646780547571
0
VERTEX
8
0
70
0
10
10.579872845472371
20
4.420528603766673
0
VERTEX
8
0
70
0
10
10.579559259394095
20
4.420346321846836
0
VERTEX
8
0
70
0
10
10.519184488043374
20
4.385214925898374
0
VERTEX
8
0
70
0
10
10.5189571991259
20
4.385082569002911
0
VERTEX
8
0
70
0
10
10.45872636471048
20
4.34998189363283
0
VERTEX
8
0
70
0
10
10.450927314829777
20
4.345317368614694
0
VERTEX
8
0
70
0
10
10.392066918172388
20
4.309199560400817
0
VERTEX
8
0
70
0
10
10.387656806915558
20
4.306453856334926
0
VERTEX
8
0
70
0
10
10.329603211255892
20
4.269784850882189
0
VERTEX
8
0
70
0
10
10.319551149830822
20
4.263222500470182
0
VERTEX
8
0
70
0
10
10.26320328382329
20
4.225218601034175
0
VERTEX
8
0
70
0
10
10.256080474904982
20
4.220301667071631
0
VERTEX
8
0
70
0
10
10.200953844584864
20
4.181360008081114
0
VERTEX
8
0
70
0
10
10.198146583833683
20
4.179358758348034
0
VERTEX
8
0
70
0
10
10.14353819343986
20
4.1400733142281325
0
VERTEX
8
0
70
0
10
10.140132039336162
20
4.137595597946913
0
VERTEX
8
0
70
0
10
10.09373967318221
20
4.1034737601923545
0
VERTEX
8
0
70
0
10
10.048520564582759
20
4.073396088450046
0
VERTEX
8
0
70
0
10
9.994499971991532
20
4.038998247260849
0
VERTEX
8
0
70
0
10
9.992919643252586
20
4.037986749115461
0
VERTEX
8
0
70
0
10
9.94561555570112
20
4.007552872230093
0
VERTEX
8
0
70
0
10
9.895630043889769
20
3.979349174471757
0
VERTEX
8
0
70
0
10
9.893212142739563
20
3.9779737982582866
0
VERTEX
8
0
70
0
10
9.842061370540709
20
3.9486417972684364
0
VERTEX
8
0
70
0
10
9.79097746913886
20
3.922572662282267
0
VERTEX
8
0
70
0
10
9.739815978108643
20
3.8973332327988146
0
VERTEX
8
0
70
0
10
9.68362439364688
20
3.87312683467119
0
VERTEX
8
0
70
0
10
9.681666921384513
20
3.872277391034064
0
VERTEX
8
0
70
0
10
9.616578645658015
20
3.8438258399100143
0
VERTEX
8
0
70
0
10
9.553589901003564
20
3.81634336623841
0
VERTEX
8
0
70
0
10
9.49324450535138
20
3.790795967761902
0
VERTEX
8
0
70
0
10
9.43547201218126
20
3.767532049047162
0
VERTEX
8
0
70
0
10
9.372910197878976
20
3.74444867147081
0
VERTEX
8
0
70
0
10
9.371332532281
20
3.7438627879206337
0
VERTEX
8
0
70
0
10
9.327678876048829
20
3.7275469407051354
0
VERTEX
8
0
70
0
10
9.279771674148947
20
3.7163439350816247
0
VERTEX
8
0
70
0
10
9.241140689027922
20
3.7078687659554106
0
VERTEX
8
0
70
0
10
9.207199471327609
20
3.7065874560773224
0
VERTEX
8
0
70
0
10
9.132793670206512
20
3.7113246918227674
0
VERTEX
8
0
70
0
10
9.039241384142606
20
3.719631863859675
0
VERTEX
8
0
70
0
10
8.939401526894693
20
3.7301811355209296
0
VERTEX
8
0
70
0
10
8.919684490155998
20
3.731772634779606
0
VERTEX
8
0
70
0
10
8.82279224228917
20
3.7371861400534385
0
VERTEX
8
0
70
0
10
8.790683896045213
20
3.737689069280595
0
VERTEX
8
0
70
0
10
8.702104260768467
20
3.7355194157510425
0
VERTEX
8
0
70
0
10
8.691167962008825
20
3.735101777800857
0
VERTEX
8
0
70
0
10
8.605381715100327
20
3.7306497315740295
0
VERTEX
8
0
70
0
10
8.536141692784474
20
3.7209375259818884
0
VERTEX
8
0
70
0
10
8.463283660164766
20
3.7041187954238346
0
VERTEX
8
0
70
0
10
8.463283660164759
20
3.704118795423831
0
VERTEX
8
0
70
0
10
8.39066565290163
20
3.687355472919691
0
VERTEX
8
0
70
0
10
8.361975578935327
20
3.6795994532976017
0
VERTEX
8
0
70
0
10
8.293993067118166
20
3.658481665987125
0
VERTEX
8
0
70
0
10
8.265523384481222
20
3.648445211444777
0
VERTEX
8
0
70
0
10
8.201821744894518
20
3.623247550121228
0
VERTEX
8
0
70
0
10
8.166381572911318
20
3.6071941255392836
0
VERTEX
8
0
70
0
10
8.107696658827628
20
3.577090094707419
0
VERTEX
8
0
70
0
10
8.077598703619973
20
3.5599659092120035
0
VERTEX
8
0
70
0
10
8.024686141632507
20
3.526750114514215
0
VERTEX
8
0
70
0
10
7.971386028165012
20
3.493994960940615
0
VERTEX
8
0
70
0
10
7.960335894098668
20
3.4869522695476505
0
VERTEX
8
0
70
0
10
7.906945823579912
20
3.4516817757890337
0
VERTEX
8
0
70
0
10
7.882189262567845
20
3.433937219035375
0
VERTEX
8
0
70
0
10
7.832215567029412
20
3.3951547744811954
0
VERTEX
8
0
70
0
10
7.785389508796758
20
3.3524617162490316
0
VERTEX
8
0
70
0
10
7.742319983487853
20
3.3064371334935565
0
VERTEX
8
0
70
0
10
7.712091639047422
20
3.270039567420959
0
VERTEX
8
0
70
0
10
7.679716952097197
20
3.2259977951257675
0
VERTEX
8
0
70
0
10
7.645539313594327
20
3.183786822963306
0
VERTEX
8
0
70
0
10
7.621229552381086
20
3.1503711989234944
0
VERTEX
8
0
70
0
10
7.585726572084917
20
3.0958576146809804
0
VERTEX
8
0
70
0
10
7.577085879344228
20
3.081977865345703
0
VERTEX
8
0
70
0
10
7.543381556205869
20
3.0252874080566876
0
VERTEX
8
0
70
0
10
7.5220466891322335
20
2.9841494719631143
0
VERTEX
8
0
70
0
10
7.493886011435356
20
2.921169707783026
0
VERTEX
8
0
70
0
10
7.47482300090504
20
2.86913065492584
0
VERTEX
8
0
70
0
10
7.466209257703266
20
2.8393782001592633
0
VERTEX
8
0
70
0
10
7.453761678887043
20
2.798095725615532
0
VERTEX
8
0
70
0
10
7.444671664563883
20
2.776326644415846
0
VERTEX
8
0
70
0
10
7.433755051772492
20
2.7562357649777134
0
VERTEX
8
0
70
0
10
7.4210898717580545
20
2.737688078012699
0
VERTEX
8
0
70
0
10
7.406749954056533
20
2.7206502172738105
0
VERTEX
8
0
70
0
10
7.390829885977647
20
2.7051672799290145
0
VERTEX
8
0
70
0
10
7.373456316148227
20
2.6913344248406688
0
VERTEX
8
0
70
0
10
7.354786171766202
20
2.679269141666442
0
VERTEX
8
0
70
0
10
7.334993928123167
20
2.669088707026898
0
VERTEX
8
0
70
0
10
7.3142508632544985
20
2.660896044069215
0
VERTEX
8
0
70
0
10
7.292699744638281
20
2.6547761956993057
0
VERTEX
8
0
70
0
10
7.2704290062255605
20
2.6508047239363712
0
VERTEX
8
0
70
0
10
7.247451243219436
20
2.6490681543256827
0
VERTEX
8
0
70
0
10
7.223691434826186
20
2.6496947249221243
0
VERTEX
8
0
70
0
10
7.197740369780471
20
2.653052844838882
0
VERTEX
8
0
70
0
10
7.192849760042748
20
2.6541713851894926
0
VERTEX
8
0
70
0
10
7.160193568893112
20
2.6602257857991347
0
VERTEX
8
0
70
0
10
7.065869474791713
20
2.673690257412293
0
VERTEX
8
0
70
0
10
7.032239073771596
20
2.677048565941295
0
VERTEX
8
0
70
0
10
6.945451712990339
20
2.682024292185936
0
VERTEX
8
0
70
0
10
6.898404122393133
20
2.681950247330473
0
VERTEX
8
0
70
0
10
6.819977085340907
20
2.6772061201522206
0
VERTEX
8
0
70
0
10
6.819712171755011
20
2.6771900070641834
0
VERTEX
8
0
70
0
10
6.741660394329486
20
2.6724166001325997
0
VERTEX
8
0
70
0
10
6.669154027270308
20
2.6612422134469007
0
VERTEX
8
0
70
0
10
6.601172851458068
20
2.644263805183506
0
VERTEX
8
0
70
0
10
6.58125289356465
20
2.6387381843257565
0
VERTEX
8
0
70
0
10
6.51582436669416
20
2.6187543495047656
0
VERTEX
8
0
70
0
10
6.513247985024082
20
2.617957940704578
0
VERTEX
8
0
70
0
10
6.448231413137849
20
2.597619722507776
0
VERTEX
8
0
70
0
10
6.403748473825414
20
2.580739966948091
0
VERTEX
8
0
70
0
10
6.343927619267464
20
2.553868494763151
0
VERTEX
8
0
70
0
10
6.313120498689597
20
2.538401607293867
0
VERTEX
8
0
70
0
10
6.256802032268868
20
2.5070180370712727
0
VERTEX
8
0
70
0
10
6.218329011327953
20
2.482608137160149
0
VERTEX
8
0
70
0
10
6.166434715964696
20
2.44537483225832
0
VERTEX
8
0
70
0
10
6.166307421320317
20
2.4452834626682645
0
VERTEX
8
0
70
0
10
6.114350419841527
20
2.407974327973978
0
VERTEX
8
0
70
0
10
6.082415112934043
20
2.3824720127830155
0
VERTEX
8
0
70
0
10
6.0343062138433465
20
2.3398522543353195
0
VERTEX
8
0
70
0
10
6.02431885086765
20
2.3306979106973884
0
VERTEX
8
0
70
0
10
5.977395512581492
20
2.286202783247578
0
VERTEX
8
0
70
0
10
5.965268391372338
20
2.2742017781883597
0
VERTEX
8
0
70
0
10
5.919866324527799
20
2.2273135735955734
0
VERTEX
8
0
70
0
10
5.88735778400743
20
2.1892366435049873
0
VERTEX
8
0
70
0
10
5.846832839688699
20
2.135264959688506
0
VERTEX
8
0
70
0
10
5.837262527387807
20
2.121959875948427
0
VERTEX
8
0
70
0
10
5.798268146277425
20
2.065335981807795
0
VERTEX
8
0
70
0
10
5.776125395801579
20
2.0292284854331797
0
VERTEX
8
0
70
0
10
5.741645848312274
20
1.965681548983099
0
VERTEX
8
0
70
0
10
5.721193737948531
20
1.9218573841204964
0
VERTEX
8
0
70
0
10
5.692541471206357
20
1.8493126241628985
0
VERTEX
8
0
70
0
10
5.682300541249168
20
1.8201285152237006
0
VERTEX
8
0
70
0
10
5.6578234316520675
20
1.7406666134673792
0
VERTEX
8
0
70
0
10
5.651628325040248
20
1.7182602566797343
0
VERTEX
8
0
70
0
10
5.6306221391142595
20
1.632676135225502
0
VERTEX
8
0
70
0
10
5.62643434839371
20
1.613617324589601
0
VERTEX
8
0
70
0
10
5.608822170053431
20
1.5229680220642585
0
VERTEX
8
0
70
0
10
5.591598932592087
20
1.436424521011034
0
VERTEX
8
0
70
0
10
5.573741450015589
20
1.3567188646860195
0
VERTEX
8
0
70
0
10
5.560116488419321
20
1.3039030557467335
0
VERTEX
8
0
70
0
10
5.554885354352928
20
1.2916512578434656
0
VERTEX
8
0
70
0
10
5.543932204342502
20
1.275467237748991
0
VERTEX
8
0
70
0
10
5.514495149705427
20
1.238924167796764
0
VERTEX
8
0
70
0
10
5.493923989321985
20
1.2156615963975277
0
VERTEX
8
0
70
0
10
5.471370908255329
20
1.197139490856447
0
VERTEX
8
0
70
0
10
5.423230220049932
20
1.1611328598200643
0
VERTEX
8
0
70
0
10
5.38214974348397
20
1.1306914860964028
0
VERTEX
8
0
70
0
10
5.345002366464772
20
1.108102562085282
0
VERTEX
8
0
70
0
10
5.292605365573716
20
1.0792128706998376
0
VERTEX
8
0
70
0
10
5.235767905683721
20
1.0486723348562776
0
VERTEX
8
0
70
0
10
5.180749618110612
20
1.0205107995719978
0
VERTEX
8
0
70
0
10
5.121356010344188
20
0.9919991817837435
0
VERTEX
8
0
70
0
10
5.0575187986704035
20
0.9614268962498009
0
VERTEX
8
0
70
0
10
4.994185354426348
20
0.931232187492256
0
VERTEX
8
0
70
0
10
4.930294096403217
20
0.9011436587907546
0
VERTEX
8
0
70
0
10
4.865899681766773
20
0.8708410302820084
0
VERTEX
8
0
70
0
10
4.803516598539388
20
0.8416949028016028
0
VERTEX
8
0
70
0
10
4.742674562700836
20
0.8142016459638555
0
VERTEX
8
0
70
0
10
4.679145452414088
20
0.7865768652179668
0
VERTEX
8
0
70
0
10
4.6128353530500705
20
0.7578363492156193
0
VERTEX
8
0
70
0
10
4.611746485369565
20
0.7573624845610709
0
VERTEX
8
0
70
0
10
4.548501054397068
20
0.7297269531832988
0
VERTEX
8
0
70
0
10
4.494548503747316
20
0.7073060047387401
0
VERTEX
8
0
70
0
10
4.440209873452155
20
0.6881010260093667
0
VERTEX
8
0
70
0
10
4.385376300503102
20
0.6702259070740268
0
VERTEX
8
0
70
0
10
4.333304713961473
20
0.6563975959022201
0
VERTEX
8
0
70
0
10
4.269022617028474
20
0.6425431532240111
0
VERTEX
8
0
70
0
10
4.199254383459449
20
0.6275063072146203
0
VERTEX
8
0
70
0
10
4.132882884628534
20
0.6145296187388176
0
VERTEX
8
0
70
0
10
4.0621294976888445
20
0.6021848632401507
0
VERTEX
8
0
70
0
10
4.057499257613838
20
0.601348907812568
0
VERTEX
8
0
70
0
10
3.9831452258321542
20
0.5874727943056577
0
VERTEX
8
0
70
0
10
3.9818129272697407
20
0.5872218206321875
0
VERTEX
8
0
70
0
10
3.908074318752327
20
0.5732017652805581
0
VERTEX
8
0
70
0
10
3.8359930538343683
20
0.5596824411427654
0
VERTEX
8
0
70
0
10
3.7631795140733937
20
0.5466830411216073
0
VERTEX
8
0
70
0
10
3.7620547394328225
20
0.5464805766722414
0
VERTEX
8
0
70
0
10
3.6876258291031876
20
0.5329732410162329
0
VERTEX
8
0
70
0
10
3.67678750991295
20
0.5308513513538244
0
VERTEX
8
0
70
0
10
3.6031654327967475
20
0.5153795925366715
0
VERTEX
8
0
70
0
10
3.6017888824877105
20
0.5150877798863327
0
VERTEX
8
0
70
0
10
3.528248155258879
20
0.49936278497971287
0
VERTEX
8
0
70
0
10
3.5021079598849303
20
0.4928455663968947
0
VERTEX
8
0
70
0
10
3.4303815737762244
20
0.4723741300719979
0
VERTEX
8
0
70
0
10
3.4225270939613406
20
0.4700451355567701
0
VERTEX
8
0
70
0
10
3.351252560598395
20
0.44811442375031874
0
VERTEX
8
0
70
0
10
3.343232997985111
20
0.44555417237841155
0
VERTEX
8
0
70
0
10
3.2723916511654547
20
0.42211376960294444
0
VERTEX
8
0
70
0
10
3.24253876583468
20
0.41089681670008105
0
VERTEX
8
0
70
0
10
3.1742346152447976
20
0.38207510619260887
0
VERTEX
8
0
70
0
10
3.1056299553279727
20
0.3534037283899778
0
VERTEX
8
0
70
0
10
3.1050013598854047
20
0.3531403954392047
0
VERTEX
8
0
70
0
10
3.035588430478871
20
0.3239922021903112
0
VERTEX
8
0
70
0
10
3.031193856563915
20
0.32211585720622793
0
VERTEX
8
0
70
0
10
2.9618498256357526
20
0.29201717562579077
0
VERTEX
8
0
70
0
10
2.956960781145214
20
0.2898561572980114
0
VERTEX
8
0
70
0
10
2.8934186376301403
20
0.26126070791778844
0
VERTEX
8
0
70
0
10
2.843004582185751
20
0.24044816867956698
0
VERTEX
8
0
70
0
10
2.7856783453295435
20
0.22173365337028272
0
VERTEX
8
0
70
0
10
2.7275451234760633
20
0.20291705240274993
0
VERTEX
8
0
70
0
10
2.67227224415317
20
0.18938021555551288
0
VERTEX
8
0
70
0
10
2.6181393146901195
20
0.17754216666318
0
VERTEX
8
0
70
0
10
2.5677836511947443
20
0.1707598793773144
0
VERTEX
8
0
70
0
10
2.500868214552359
20
0.1652434438621988
0
VERTEX
8
0
70
0
10
2.4325657234049416
20
0.15982739444894278
0
VERTEX
8
0
70
0
10
2.3630196175745324
20
0.15743145293046013
0
VERTEX
8
0
70
0
10
2.285921773559132
20
0.15485694963929575
0
VERTEX
8
0
70
0
10
2.2089521624340374
20
0.15278554184101267
0
VERTEX
8
0
70
0
10
2.130766467379719
20
0.1508213267531744
0
VERTEX
8
0
70
0
10
2.052389503216272
20
0.14885230651946557
0
VERTEX
8
0
70
0
10
1.9752322203274595
20
0.14693536373948035
0
VERTEX
8
0
70
0
10
1.8980286866036673
20
0.1454489126182068
0
VERTEX
8
0
70
0
10
1.8969972318207202
20
0.14542772264975312
0
VERTEX
8
0
70
0
10
1.8257082128792774
20
0.14387120257303465
0
VERTEX
8
0
70
0
10
1.754811397543019
20
0.14476355120407547
0
VERTEX
8
0
70
0
10
1.6771067247763503
20
0.1460664834071821
0
VERTEX
8
0
70
0
10
1.6767141407289916
20
0.14607287342576925
0
VERTEX
8
0
70
0
10
1.606299491789545
20
0.14718443171359397
0
VERTEX
8
0
70
0
10
1.551734471157777
20
0.15022332170017094
0
VERTEX
8
0
70
0
10
1.4987507302068321
20
0.1575368067244476
0
VERTEX
8
0
70
0
10
1.4453977822751574
20
0.1678400632911945
0
VERTEX
8
0
70
0
10
1.4056053809595164
20
0.17902128314619148
0
VERTEX
8
0
70
0
10
1.3595340622211216
20
0.19874966252214676
0
VERTEX
8
0
70
0
10
1.2955031096973308
20
0.23138418302422536
0
VERTEX
8
0
70
0
10
1.2355698452612867
20
0.26486719605194864
0
VERTEX
8
0
70
0
10
1.1675658435350948
20
0.3114428518117798
0
VERTEX
8
0
70
0
10
1.1447037565960407
20
0.32598855443910324
0
VERTEX
8
0
70
0
10
1.063703715126615
20
0.373748776000113
0
VERTEX
8
0
70
0
10
1.0272707861109267
20
0.39277912590900144
0
VERTEX
8
0
70
0
10
0.9483606550662231
20
0.4289648323328592
0
VERTEX
8
0
70
0
10
0.9403977930825653
20
0.43251185406413484
0
VERTEX
8
0
70
0
10
0.8623769672842871
20
0.4662519119754087
0
VERTEX
8
0
70
0
10
0.8243191405064905
20
0.4804624403369182
0
VERTEX
8
0
70
0
10
0.7477899112837649
20
0.5046868027626275
0
VERTEX
8
0
70
0
10
0.6699853639020517
20
0.5210277692368948
0
VERTEX
8
0
70
0
10
0.5952946273657311
20
0.5290862142886787
0
VERTEX
8
0
70
0
10
0.5839995832899973
20
0.5301430436643209
0
VERTEX
8
0
70
0
10
0.5096711881344316
20
0.5360356993859767
0
VERTEX
8
0
70
0
10
0.4472989645445884
20
0.5361023541961636
0
VERTEX
8
0
70
0
10
0.37394085531057764
20
0.530444370348107
0
VERTEX
8
0
70
0
10
0.3627976030462561
20
0.5294279392756316
0
VERTEX
8
0
70
0
10
0.289541349363418
20
0.521711301060293
0
VERTEX
8
0
70
0
10
0.2514153596156261
20
0.5158246026393805
0
VERTEX
8
0
70
0
10
0.1784911589246021
20
0.5009333535636031
0
VERTEX
8
0
70
0
10
0.15819992715116205
20
0.4962364145422953
0
VERTEX
8
0
70
0
10
0.08528722831248037
20
0.4773460705555479
0
VERTEX
8
0
70
0
10
0.04482050494557743
20
0.4645354429861648
0
VERTEX
8
0
70
0
10
-0.027999133031026302
20
0.4371531316949877
0
VERTEX
8
0
70
0
10
-0.07394027432112216
20
0.4164890868136375
0
VERTEX
8
0
70
0
10
-0.14678507564171417
20
0.37803667661578544
0
VERTEX
8
0
70
0
10
-0.18974503093301132
20
0.35177612988423945
0
VERTEX
8
0
70
0
10
-0.26283284085632497
20
0.30051376475486435
0
VERTEX
8
0
70
0
10
-0.28448960891939556
20
0.28420177726063045
0
VERTEX
8
0
70
0
10
-0.3581947979732574
20
0.22466667854016364
0
VERTEX
8
0
70
0
10
-0.39528771778874405
20
0.1906329689011521
0
VERTEX
8
0
70
0
10
-0.4697203431258281
20
0.11316448228102871
0
VERTEX
8
0
70
0
10
-0.5003971327030677
20
0.07675176274594975
0
VERTEX
8
0
70
0
10
-0.5175529297628573
20
0.05805477153396055
0
VERTEX
8
0
70
0
10
-0.5373671730779145
20
0.04008402652485543
0
VERTEX
8
0
70
0
10
-0.5601554183148717
20
0.02279145151294415
0
VERTEX
8
0
70
0
10
-0.5857729229927122
20
0.00653534461514127
0
VERTEX
8
0
70
0
10
-0.6139458536479542
20
-0.008314192793967834
0
VERTEX
8
0
70
0
10
-0.6442943741956689
20
-0.02141061339447603
0
VERTEX
8
0
70
0
10
-0.6763570855875964
20
-0.03245372392918355
0
VERTEX
8
0
70
0
10
-0.7096138203332275
20
-0.04120362250086984
0
VERTEX
8
0
70
0
10
-0.7435061168723698
20
-0.04748911757796748
0
VERTEX
8
0
70
0
10
-0.777456138771356
20
-0.05121301630205011
0
VERTEX
8
0
70
0
10
-0.8108855941538972
20
-0.05235551858216425
0
VERTEX
8
0
70
0
10
-0.8432365494585237
20
-0.05097572872178446
0
VERTEX
8
0
70
0
10
-0.8739959635988344
20
-0.04720997541429739
0
VERTEX
8
0
70
0
10
-0.9027251441095507
20
-0.04126419695123573
0
VERTEX
8
0
70
0
10
-0.9290938159218725
20
-0.03339625874948382
0
VERTEX
8
0
70
0
10
-0.9704385487204725
20
-0.016885714957638243
0
VERTEX
8
0
70
0
10
-0.9909820981946962
20
-0.009326845261501404
0
VERTEX
8
0
70
0
10
-1.0546140136998166
20
0.012128245395100379
0
VERTEX
8
0
70
0
10
-1.1443774160253999
20
0.03128135712155711
0
VERTEX
8
0
70
0
10
-1.2186459236976677
20
0.03837596966500101
0
VERTEX
8
0
70
0
10
-1.2927375091557034
20
0.0462663577712803
0
VERTEX
8
0
70
0
10
-1.3822281825385574
20
0.04572897649050489
0
VERTEX
8
0
70
0
10
-1.4603558446911247
20
0.03645857982207801
0
VERTEX
8
0
70
0
10
-1.4774448544080963
20
0.034055978713272594
0
VERTEX
8
0
70
0
10
-1.5561678566183237
20
0.02125064668964427
0
VERTEX
8
0
70
0
10
-1.6011495392759785
20
0.01124455523107315
0
VERTEX
8
0
70
0
10
-1.6813798933734847
20
-0.011523832921028543
0
VERTEX
8
0
70
0
10
-1.6985383057819576
20
-0.01681206258960799
0
VERTEX
8
0
70
0
10
-1.7797276171162992
20
-0.04384430970320352
0
VERTEX
8
0
70
0
10
-1.8271376624886857
20
-0.06307831579951184
0
VERTEX
8
0
70
0
10
-1.9102775890286434
20
-0.10317832988697972
0
VERTEX
8
0
70
0
10
-1.9940772680137417
20
-0.14336549646413843
0
VERTEX
8
0
70
0
10
-2.020610726374583
20
-0.15733652854861546
0
VERTEX
8
0
70
0
10
-2.106943490403351
20
-0.20701402752842668
0
VERTEX
8
0
70
0
10
-2.1089565476166006
20
-0.20818018406270156
0
VERTEX
8
0
70
0
10
-2.1919935814717926
20
-0.2566062848635582
0
VERTEX
8
0
70
0
10
-2.2716967136126462
20
-0.3004689582503062
0
VERTEX
8
0
70
0
10
-2.3087163096579326
20
-0.3198565089013954
0
VERTEX
8
0
70
0
10
-2.3185688846954653
20
-0.3220239620522882
0
VERTEX
8
0
70
0
10
-2.3741320633527065
20
-0.3279765249140567
0
VERTEX
8
0
70
0
10
-2.441570165538972
20
-0.3336296980813849
0
VERTEX
8
0
70
0
10
-2.5087206105202338
20
-0.33595433848816114
0
VERTEX
8
0
70
0
10
-2.5836945526987725
20
-0.3369842071219509
0
VERTEX
8
0
70
0
10
-2.6591744705005302
20
-0.3373743085182035
0
VERTEX
8
0
70
0
10
-2.73384769808516
20
-0.3364170067327841
0
VERTEX
8
0
70
0
10
-2.8076330792842588
20
-0.3346363922900615
0
VERTEX
8
0
70
0
10
-2.8833061140279814
20
-0.3311698855655152
0
VERTEX
8
0
70
0
10
-2.883755035821721
20
-0.3311495735969814
0
VERTEX
8
0
70
0
10
-2.963534636993543
20
-0.3275847612510603
0
VERTEX
8
0
70
0
10
-3.0407454833082292
20
-0.3240296927893169
0
VERTEX
8
0
70
0
10
-3.1177982203808288
20
-0.31948618625766656
0
VERTEX
8
0
70
0
10
-3.192427231600419
20
-0.31501373680061917
0
VERTEX
8
0
70
0
10
-3.2593494060938952
20
-0.309318192492114
0
VERTEX
8
0
70
0
10
-3.3235476036568947
20
-0.3014530867161902
0
VERTEX
8
0
70
0
10
-3.382122991088568
20
-0.2921983289413248
0
VERTEX
8
0
70
0
10
-3.4431901332269645
20
-0.2786515974498691
0
VERTEX
8
0
70
0
10
-3.5064821917779403
20
-0.26357566147249756
0
VERTEX
8
0
70
0
10
-3.5713539896249724
20
-0.2447968172180417
0
VERTEX
8
0
70
0
10
-3.64522468972256
20
-0.22329346700083974
0
VERTEX
8
0
70
0
10
-3.647624529220107
20
-0.22260300556251877
0
VERTEX
8
0
70
0
10
-3.721762668488471
20
-0.20152296420318194
0
VERTEX
8
0
70
0
10
-3.723309503207211
20
-0.20108650249087745
0
VERTEX
8
0
70
0
10
-3.7947320234951687
20
-0.18108843646221473
0
VERTEX
8
0
70
0
10
-3.8604447308430525
20
-0.16170871400835551
0
VERTEX
8
0
70
0
10
-3.927983151123341
20
-0.1397776662035355
0
VERTEX
8
0
70
0
10
-3.9319832211180907
20
-0.13850193281715661
0
VERTEX
8
0
70
0
10
-4.004123937998525
20
-0.1159106847521727
0
VERTEX
8
0
70
0
10
-4.0760069437843995
20
-0.09312479515642735
0
VERTEX
8
0
70
0
10
-4.090977138785964
20
-0.08869901206615438
0
VERTEX
8
0
70
0
10
-4.164414107591426
20
-0.06853774113795197
0
VERTEX
8
0
70
0
10
-4.1777348481168435
20
-0.06512578565925864
0
VERTEX
8
0
70
0
10
-4.251994664477486
20
-0.04745937271539091
0
VERTEX
8
0
70
0
10
-4.297780256054592
20
-0.03934511016860753
0
VERTEX
8
0
70
0
10
-4.375292562340442
20
-0.03021528740650936
0
VERTEX
8
0
70
0
10
-4.384172010641736
20
-0.02926977975380396
0
VERTEX
8
0
70
0
10
-4.462381586055477
20
-0.021823697780881446
0
VERTEX
8
0
70
0
10
-4.470254271238783
20
-0.02115255465162491
0
VERTEX
8
0
70
0
10
-4.549127886428556
20
-0.015212650645224812
0
VERTEX
8
0
70
0
10
-4.556629147148358
20
-0.014718578479037348
0
VERTEX
8
0
70
0
10
-4.636178905273398
20
-0.010229348621535905
0
VERTEX
8
0
70
0
10
-4.637915253974659
20
-0.01013514703115348
0
VERTEX
8
0
70
0
10
-4.716807273948302
20
-0.0060270093630201416
0
VERTEX
8
0
70
0
10
-4.794853033943381
20
-0.0016110383278977736
0
VERTEX
8
0
70
0
10
-4.866682458438701
20
0.0027423669336599232
0
VERTEX
8
0
70
0
10
-4.934022456994057
20
0.009226994193397786
0
VERTEX
8
0
70
0
10
-5.007784422899041
20
0.017905982775285878
0
VERTEX
8
0
70
0
10
-5.00835227966167
20
0.017972386593335443
0
VERTEX
8
0
70
0
10
-5.082024071631924
20
0.026534024945060963
0
VERTEX
8
0
70
0
10
-5.150154348365348
20
0.03597932960900252
0
VERTEX
8
0
70
0
10
-5.2057953514175725
20
0.04508539558499791
0
VERTEX
8
0
70
0
10
-5.263781424242202
20
0.05949639926717154
0
VERTEX
8
0
70
0
10
-5.265573411419576
20
0.059937366754269306
0
VERTEX
8
0
70
0
10
-5.328968323444968
20
0.07538241211950947
0
VERTEX
8
0
70
0
10
-5.386463382144612
20
0.09272636616124785
0
VERTEX
8
0
70
0
10
-5.453270033125584
20
0.11448105879532378
0
VERTEX
8
0
70
0
10
-5.5202854257734915
20
0.1363965114880088
0
VERTEX
8
0
70
0
10
-5.578448438416178
20
0.15671368490574977
0
VERTEX
8
0
70
0
10
-5.635891015333464
20
0.1796712388692825
0
VERTEX
8
0
70
0
10
-5.695409273269701
20
0.2045874263575449
0
VERTEX
8
0
70
0
10
-5.754255721950141
20
0.231294218769186
0
VERTEX
8
0
70
0
10
-5.816682140225946
20
0.2607006799131497
0
VERTEX
8
0
70
0
10
-5.880402000078496
20
0.2912268519284922
0
VERTEX
8
0
70
0
10
-5.9426553053625915
20
0.3214312114828033
0
VERTEX
8
0
70
0
10
-6.0026816100080085
20
0.3515174461048609
0
VERTEX
8
0
70
0
10
-6.026041852583267
20
0.3636423152597814
0
VERTEX
8
0
70
0
10
-6.048901876358849
20
0.37821767196625444
0
VERTEX
8
0
70
0
10
-6.078201640453732
20
0.39938412456819705
0
VERTEX
8
0
70
0
10
-6.109102249925155
20
0.4242894370502803
0
VERTEX
8
0
70
0
10
-6.140978113085633
20
0.45263978305312946
0
VERTEX
8
0
70
0
10
-6.173280336223951
20
0.48409630356161415
0
VERTEX
8
0
70
0
10
-6.205523536347777
20
0.5182909735232286
0
VERTEX
8
0
70
0
10
-6.23727399467377
20
0.5548355603251309
0
VERTEX
8
0
70
0
10
-6.268139891167659
20
0.5933259763189049
0
VERTEX
8
0
70
0
10
-6.297763748438655
20
0.6333435037256727
0
VERTEX
8
0
70
0
10
-6.325817009949377
20
0.6744537883623778
0
VERTEX
8
0
70
0
10
-6.351996681823102
20
0.7162041096550489
0
VERTEX
8
0
70
0
10
-6.3760240860528805
20
0.758119189119288
0
VERTEX
8
0
70
0
10
-6.397645972021239
20
0.7996956699491662
0
VERTEX
8
0
70
0
10
-6.416638512120019
20
0.8403953895965444
0
VERTEX
8
0
70
0
10
-6.432815080623399
20
0.8796377214444178
0
VERTEX
8
0
70
0
10
-6.446039193333544
20
0.9167916927616204
0
VERTEX
8
0
70
0
10
-6.456244535079336
20
0.9511695086872436
0
VERTEX
8
0
70
0
10
-6.458378607911465
20
0.9602897850943926
0
VERTEX
8
0
70
0
10
-6.486838539281863
20
1.041389279874192
0
VERTEX
8
0
70
0
10
-6.509873562304373
20
1.089672809391356
0
VERTEX
8
0
70
0
10
-6.518894400967964
20
1.1074297377968847
0
VERTEX
8
0
70
0
10
-6.545091427341988
20
1.155965169080364
0
VERTEX
8
0
70
0
10
-6.554100815031233
20
1.1717847153945087
0
VERTEX
8
0
70
0
10
-6.583255505141723
20
1.2203717468561734
0
VERTEX
8
0
70
0
10
-6.592207051328704
20
1.2346030293819723
0
VERTEX
8
0
70
0
10
-6.624115065560608
20
1.2830413594337138
0
VERTEX
8
0
70
0
10
-6.633003673543297
20
1.2959751696718627
0
VERTEX
8
0
70
0
10
-6.667460672281565
20
1.344064496725558
0
VERTEX
8
0
70
0
10
-6.676309124594509
20
1.3559428467299064
0
VERTEX
8
0
70
0
10
-6.713110768224089
20
1.4034828691974468
0
VERTEX
8
0
70
0
10
-6.721961399702801
20
1.4145078638036992
0
VERTEX
8
0
70
0
10
-6.760903348608641
20
1.4612982800969725
0
VERTEX
8
0
70
0
10
-6.769813208879555
20
1.4716397575718254
0
VERTEX
8
0
70
0
10
-6.8106911234466025
20
1.5174802661027158
0
VERTEX
8
0
70
0
10
-6.81972955826277
20
1.5272820951503583
0
VERTEX
8
0
70
0
10
-6.862339098875972
20
1.5719723943307464
0
VERTEX
8
0
70
0
10
-6.871587067976639
20
1.5813574951563112
0
VERTEX
8
0
70
0
10
-6.915723895020953
20
1.6246972833980777
0
VERTEX
8
0
70
0
10
-6.925274618967139
20
1.6337714853689391
0
VERTEX
8
0
70
0
10
-6.970734392827502
20
1.675560461083986
0
VERTEX
8
0
70
0
10
-6.980695114368705
20
1.6844152847746372
0
VERTEX
8
0
70
0
10
-7.027273495430075
20
1.724453146374838
0
VERTEX
8
0
70
0
10
-7.037768278099199
20
1.7331675322535212
0
VERTEX
8
0
70
0
10
-7.085260926746521
20
1.7712539781507672
0
VERTEX
8
0
70
0
10
-7.096434511069245
20
1.7798948855962244
0
VERTEX
8
0
70
0
10
-7.144637087687467
20
1.8158296142023929
0
VERTEX
8
0
70
0
10
-7.156659889544257
20
1.8244512770706152
0
VERTEX
8
0
70
0
10
-7.205368054518328
20
1.858033986797583
0
VERTEX
8
0
70
0
10
-7.218442413131223
20
1.8666754191364099
0
VERTEX
8
0
70
0
10
-7.267451826846095
20
1.8977058083960898
0
VERTEX
8
0
70
0
10
-7.281819562788
20
1.9063858808669707
0
VERTEX
8
0
70
0
10
-7.330925885628616
20
1.9346636480712256
0
VERTEX
8
0
70
0
10
-7.346877047066218
20
1.9433726711855641
0
VERTEX
8
0
70
0
10
-7.395875939417526
20
1.9686975147462746
0
VERTEX
8
0
70
0
10
-7.413758168466326
20
1.9773837445553113
0
VERTEX
8
0
70
0
10
-7.4624452907132826
20
1.9995553628843865
0
VERTEX
8
0
70
0
10
-7.590457079955633
20
2.0337380001149157
0
VERTEX
8
0
70
0
10
-7.608691419684846
20
2.0354672312952324
0
VERTEX
8
0
70
0
10
-7.672043083874717
20
2.0364346327119307
0
VERTEX
8
0
70
0
10
-7.757912125997199
20
2.0309304037742137
0
VERTEX
8
0
70
0
10
-7.801756389147113
20
2.025677582708962
0
VERTEX
8
0
70
0
10
-7.896541569001892
20
2.00897119845607
0
VERTEX
8
0
70
0
10
-7.927893546526313
20
2.0021383668963324
0
VERTEX
8
0
70
0
10
-8.030969150953062
20
1.9753016664988472
0
VERTEX
8
0
70
0
10
-8.046723289165854
20
1.9705721400696028
0
VERTEX
8
0
70
0
10
-8.05243041499482
20
1.9699351098230125
0
VERTEX
8
0
70
0
10
-8.074373528181932
20
1.970017286640143
0
VERTEX
8
0
70
0
10
-8.094565175475148
20
1.9724384532934494
0
VERTEX
8
0
70
0
10
-8.11360707265208
20
1.9769892649440486
0
VERTEX
8
0
70
0
10
-8.131949804021716
20
1.9836571077111387
0
VERTEX
8
0
70
0
10
-8.149854655941851
20
1.9925499653842529
0
VERTEX
8
0
70
0
10
-8.167394306403178
20
2.003822747651707
0
VERTEX
8
0
70
0
10
-8.184481534903634
20
2.017621122649352
0
VERTEX
8
0
70
0
10
-8.200911565125722
20
2.0340489685180607
0
VERTEX
8
0
70
0
10
-8.2164054038622
20
2.0531582306273606
0
VERTEX
8
0
70
0
10
-8.230645668108012
20
2.0749558968424324
0
VERTEX
8
0
70
0
10
-8.243300536415203
20
2.0994215333065043
0
VERTEX
8
0
70
0
10
-8.254034578521246
20
2.1265291338982912
0
VERTEX
8
0
70
0
10
-8.267922409706127
20
2.1752746905632065
0
VERTEX
8
0
70
0
10
-8.271281834456868
20
2.186445343409158
0
VERTEX
8
0
70
0
10
-8.290298630149422
20
2.246490502051497
0
VERTEX
8
0
70
0
10
-8.30909027336985
20
2.294729036135127
0
VERTEX
8
0
70
0
10
-8.339288639467012
20
2.359507221830981
0
VERTEX
8
0
70
0
10
-8.352940704571559
20
2.3861420013355534
0
VERTEX
8
0
70
0
10
-8.386715769431024
20
2.4463723789138108
0
VERTEX
8
0
70
0
10
-8.39263411155813
20
2.4565710964186778
0
VERTEX
8
0
70
0
10
-8.427703231935666
20
2.5150023252127163
0
VERTEX
8
0
70
0
10
-8.467929639626888
20
2.570590174440593
0
VERTEX
8
0
70
0
10
-8.51058395821988
20
2.6199849880969417
0
VERTEX
8
0
70
0
10
-8.514842516773568
20
2.624836803609014
0
VERTEX
8
0
70
0
10
-8.558130022824148
20
2.673359224094405
0
VERTEX
8
0
70
0
10
-8.598158563085992
20
2.7123633550612674
0
VERTEX
8
0
70
0
10
-8.647351052892141
20
2.7540098584119015
0
VERTEX
8
0
70
0
10
-8.669515289958117
20
2.7714702776111544
0
VERTEX
8
0
70
0
10
-8.721700992310527
20
2.809676920849327
0
VERTEX
8
0
70
0
10
-8.740182581547913
20
2.8224268235442906
0
VERTEX
8
0
70
0
10
-8.794804461836257
20
2.857888348707288
0
VERTEX
8
0
70
0
10
-8.820038880985404
20
2.872982448972916
0
VERTEX
8
0
70
0
10
-8.877950522863717
20
2.9047927702262584
0
VERTEX
8
0
70
0
10
-8.901689517203256
20
2.916822298613635
0
VERTEX
8
0
70
0
10
-8.962720739433493
20
2.945238647645791
0
VERTEX
8
0
70
0
10
-9.007605009187941
20
2.9629276467977412
0
VERTEX
8
0
70
0
10
-9.074663283614022
20
2.9847837504280506
0
VERTEX
8
0
70
0
10
-9.081556724130959
20
2.9869617973412055
0
VERTEX
8
0
70
0
10
-9.149707774426972
20
3.0078193184781234
0
VERTEX
8
0
70
0
10
-9.21947520059995
20
3.0225258594321147
0
VERTEX
8
0
70
0
10
-9.298278644005556
20
3.031908677002548
0
VERTEX
8
0
70
0
10
-9.304250718020619
20
3.0325742937719653
0
VERTEX
8
0
70
0
10
-9.384347979141985
20
3.0408929069368718
0
VERTEX
8
0
70
0
10
-9.398430380632654
20
3.042104384117021
0
VERTEX
8
0
70
0
10
-9.481310321366381
20
3.0477612056479515
0
VERTEX
8
0
70
0
10
-9.529685795073602
20
3.0481307766650865
0
VERTEX
8
0
70
0
10
-9.622720099523026
20
3.043207601188424
0
VERTEX
8
0
70
0
10
-9.623237352533703
20
3.043179893403291
0
VERTEX
8
0
70
0
10
-9.703388494647895
20
3.038834374686374
0
VERTEX
8
0
70
0
10
-9.775355897599287
20
3.039796692025803
0
VERTEX
8
0
70
0
10
-9.799880149890202
20
3.040465556507712
0
VERTEX
8
0
70
0
10
-9.800244827471808
20
3.0405889482991206
0
VERTEX
8
0
70
0
10
-9.851027172938773
20
3.0610929097635484
0
VERTEX
8
0
70
0
10
-9.900337474742374
20
3.0822370667535495
0
VERTEX
8
0
70
0
10
-9.935649523776464
20
3.099992111043292
0
VERTEX
8
0
70
0
10
-9.970676318081567
20
3.1215256641971756
0
VERTEX
8
0
70
0
10
-10.018361750374435
20
3.1539306448059605
0
VERTEX
8
0
70
0
10
-10.021872078472942
20
3.156289084423012
0
VERTEX
8
0
70
0
10
-10.077660406504931
20
3.1933443556824948
0
VERTEX
8
0
70
0
10
-10.081322678838912
20
3.195748083554893
0
VERTEX
8
0
70
0
10
-10.137686712932473
20
3.2323025226347397
0
VERTEX
8
0
70
0
10
-10.138851583978067
20
3.233055124834017
0
VERTEX
8
0
70
0
10
-10.195440003221343
20
3.269476990698557
0
VERTEX
8
0
70
0
10
-10.205624675002111
20
3.2758181578091765
0
VERTEX
8
0
70
0
10
-10.263734391782558
20
3.310800125476252
0
VERTEX
8
0
70
0
10
-10.264189324162512
20
3.311073583058956
0
VERTEX
8
0
70
0
10
-10.314654275430884
20
3.341362250423959
0
VERTEX
8
0
70
0
10
-10.36319105586927
20
3.3735754952112664
0
VERTEX
8
0
70
0
10
-10.418529113668392
20
3.4103031813925995
0
VERTEX
8
0
70
0
10
-10.469381742252038
20
3.44441675809977
0
VERTEX
8
0
70
0
10
-10.511595786362793
20
3.4743527624559327
0
VERTEX
8
0
70
0
10
-10.554205886733076
20
3.507966532015203
0
VERTEX
8
0
70
0
10
-10.60204164989338
20
3.546572760754813
0
VERTEX
8
0
70
0
10
-10.648080189253355
20
3.5848773337544984
0
VERTEX
8
0
70
0
10
-10.695601513858131
20
3.625947287154986
0
VERTEX
8
0
70
0
10
-10.697508163726862
20
3.6275846598106583
0
VERTEX
8
0
70
0
10
-10.748123964243506
20
3.670776425391818
0
VERTEX
8
0
70
0
10
-10.798735301320876
20
3.7140122017497283
0
VERTEX
8
0
70
0
10
-10.849467136969535
20
3.757362638127134
0
VERTEX
8
0
70
0
10
-10.852147286562413
20
3.759632547976924
0
VERTEX
8
0
70
0
10
-10.90337153869806
20
3.8026313358360895
0
VERTEX
8
0
70
0
10
-10.90490829396718
20
3.803914780216683
0
VERTEX
8
0
70
0
10
-10.95642644079724
20
3.8467225228818656
0
VERTEX
8
0
70
0
10
-10.95733787962303
20
3.847477584000938
0
VERTEX
8
0
70
0
10
-11.009053679845877
20
3.890191519422597
0
VERTEX
8
0
70
0
10
-11.009138699700902
20
3.890261720663478
0
VERTEX
8
0
70
0
10
-11.060923211141805
20
3.9330084013097952
0
VERTEX
8
0
70
0
10
-11.062318916438231
20
3.934155228188448
0
VERTEX
8
0
70
0
10
-11.114383252831244
20
3.9767390182722693
0
VERTEX
8
0
70
0
10
-11.124759979152836
20
3.9849436288424798
0
VERTEX
8
0
70
0
10
-11.178530562190637
20
4.026032121978552
0
VERTEX
8
0
70
0
10
-11.18414993782646
20
4.030248492579432
0
VERTEX
8
0
70
0
10
-11.238875433250588
20
4.0705642680317276
0
VERTEX
8
0
70
0
10
-11.293677759387434
20
4.110936643972298
0
VERTEX
8
0
70
0
10
-11.293677759387451
20
4.110936643972309
0
VERTEX
8
0
70
0
10
-11.344278718482883
20
4.148213910971023
0
VERTEX
8
0
70
0
10
-11.391230438870679
20
4.1847667715566566
0
VERTEX
8
0
70
0
10
-11.441690412664107
20
4.2253318225086645
0
VERTEX
8
0
70
0
10
-11.494655256847416
20
4.267910552568196
0
VERTEX
8
0
70
0
10
-11.49465525684745
20
4.267910552568221
0
VERTEX
8
0
70
0
10
-11.547198547458246
20
4.310150393388163
0
VERTEX
8
0
70
0
10
-11.598942188582996
20
4.352018202253564
0
VERTEX
8
0
70
0
10
-11.651021916435182
20
4.394554880908366
0
VERTEX
8
0
70
0
10
-11.703887516958638
20
4.4377334295317645
0
VERTEX
8
0
70
0
10
-11.756829601705926
20
4.480974447468775
0
VERTEX
8
0
70
0
10
-11.775715571126385
20
4.495484307234808
0
VERTEX
8
0
70
0
10
-11.831837867282422
20
4.536003681364573
0
VERTEX
8
0
70
0
10
-11.83751807157772
20
4.540029958452813
0
VERTEX
8
0
70
0
10
-11.894660368971014
20
4.579791284121306
0
VERTEX
8
0
70
0
10
-11.894660368971039
20
4.57979128412132
0
VERTEX
8
0
70
0
10
-11.951904689766804
20
4.619623600735508
0
VERTEX
8
0
70
0
10
-11.969283363276578
20
4.631057202752871
0
VERTEX
8
0
70
0
10
-12.024925376214718
20
4.665625688912826
0
VERTEX
8
0
70
0
10
-12.073206884926602
20
4.697439080334217
0
VERTEX
8
0
70
0
10
-12.110344564045544
20
4.723899861838007
0
VERTEX
8
0
70
0
10
-12.149309356502027
20
4.757005660185001
0
VERTEX
8
0
70
0
10
-12.169176815937742
20
4.774017037279162
0
VERTEX
8
0
70
0
10
-12.18136864234302
20
4.789955754192636
0
VERTEX
8
0
70
0
10
-12.205855319563199
20
4.824181142371977
0
VERTEX
8
0
70
0
10
-12.225625170915322
20
4.858749178664105
0
VERTEX
8
0
70
0
10
-12.253269615912389
20
4.913062961031745
0
VERTEX
8
0
70
0
10
-12.25326961591239
20
4.913062961031752
0
VERTEX
8
0
70
0
10
-12.28167962043426
20
4.968880858726145
0
VERTEX
8
0
70
0
10
-12.305374420543455
20
5.020496314999356
0
VERTEX
8
0
70
0
10
-12.330764647668124
20
5.081026958611474
0
VERTEX
8
0
70
0
10
-12.330764647668133
20
5.081026958611492
0
VERTEX
8
0
70
0
10
-12.358733106950792
20
5.147704142431312
0
VERTEX
8
0
70
0
10
-12.359861191961569
20
5.150366494193339
0
VERTEX
8
0
70
0
10
-12.38825724559586
20
5.2167143786705985
0
VERTEX
8
0
70
0
10
-12.398513356630767
20
5.238794899084972
0
VERTEX
8
0
70
0
10
-12.43036603049198
20
5.302242204484731
0
VERTEX
8
0
70
0
10
-12.430366030491994
20
5.3022422044847595
0
VERTEX
8
0
70
0
10
-12.462240464872568
20
5.365732854638651
0
VERTEX
8
0
70
0
10
-12.467253065177765
20
5.3753877403378745
0
VERTEX
8
0
70
0
10
-12.500659293614213
20
5.437647109692147
0
VERTEX
8
0
70
0
10
-12.532029356328922
20
5.487055844063619
0
VERTEX
8
0
70
0
10
-12.564377271818378
20
5.530600896101603
0
VERTEX
8
0
70
0
10
-12.645259501747024
20
5.611909359059553
0
VERTEX
8
0
70
0
10
-12.688133907531448
20
5.644110151727226
0
VERTEX
8
0
70
0
10
-12.702731378506208
20
5.6545694388013565
0
VERTEX
8
0
70
0
10
-12.748558910307908
20
5.6858729238054835
0
VERTEX
8
0
70
0
10
-12.76218758451021
20
5.69478098833811
0
VERTEX
8
0
70
0
10
-12.81069093614809
20
5.725093398507365
0
VERTEX
8
0
70
0
10
-12.823501114456654
20
5.7327704193334235
0
VERTEX
8
0
70
0
10
-12.872068032344107
20
5.760657273672823
0
VERTEX
8
0
70
0
10
-12.935409815183858
20
5.790440224962023
0
VERTEX
8
0
70
0
10
-12.992779703148
20
5.82608648214395
0
VERTEX
8
0
70
0
10
-13.04398314495104
20
5.867051170556593
0
VERTEX
8
0
70
0
10
-13.088825589307492
20
5.912789415537944
0
VERTEX
8
0
70
0
10
-13.12711248493186
20
5.962756342426005
0
VERTEX
8
0
70
0
10
-13.158649280538661
20
6.016407076558767
0
VERTEX
8
0
70
0
10
-13.183241424842413
20
6.073196743274213
0
VERTEX
8
0
70
0
10
-13.200694366557611
20
6.132580467910358
0
VERTEX
8
0
70
0
10
-13.210813554398781
20
6.194013375805184
0
VERTEX
8
0
70
0
10
-13.21340443708043
20
6.256950592296686
0
VERTEX
8
0
70
0
10
-13.208272463317066
20
6.320847242722859
0
VERTEX
8
0
70
0
10
-13.195223081823205
20
6.385158452421695
0
VERTEX
8
0
70
0
10
-13.174061741313361
20
6.449339346731193
0
VERTEX
8
0
70
0
10
-13.144593890502037
20
6.512845050989345
0
VERTEX
8
0
70
0
10
-13.125796033254503
20
6.553416707056776
0
VERTEX
8
0
70
0
10
-13.110812276437144
20
6.5905164769379105
0
VERTEX
8
0
70
0
10
-13.067086903258867
20
6.7166036653398535
0
VERTEX
8
0
70
0
10
-13.062758592468933
20
6.729823020808382
0
VERTEX
8
0
70
0
10
-13.025527224264653
20
6.850595502006151
0
VERTEX
8
0
70
0
10
-13.018139011910016
20
6.877973763798298
0
VERTEX
8
0
70
0
10
-12.992212497481864
20
6.989646386194934
0
VERTEX
8
0
70
0
10
-12.989155705250573
20
7.004003856430668
0
VERTEX
8
0
70
0
10
-12.968307187240223
20
7.111583206797935
0
VERTEX
8
0
70
0
10
-12.961841776043626
20
7.161763526329498
0
VERTEX
8
0
70
0
10
-12.955609618522422
20
7.257727679518059
0
VERTEX
8
0
70
0
10
-12.954914107377597
20
7.2728682285231585
0
VERTEX
8
0
70
0
10
-12.952405449393636
20
7.36590392394935
0
VERTEX
8
0
70
0
10
-12.952761466354776
20
7.39670658306996
0
VERTEX
8
0
70
0
10
-12.957152781430986
20
7.484331721981697
0
VERTEX
8
0
70
0
10
-12.960859808417588
20
7.522181431068812
0
VERTEX
8
0
70
0
10
-12.972810444223748
20
7.603914988520195
0
VERTEX
8
0
70
0
10
-12.976918217253202
20
7.627184894457574
0
VERTEX
8
0
70
0
10
-12.993168155284028
20
7.7056271772421745
0
VERTEX
8
0
70
0
10
-13.006920193296578
20
7.755511768614941
0
VERTEX
8
0
70
0
10
-13.03180452806168
20
7.827288776397431
0
VERTEX
8
0
70
0
10
-13.038660121506451
20
7.845603809713182
0
VERTEX
8
0
70
0
10
-13.066628916546863
20
7.915099946975957
0
VERTEX
8
0
70
0
10
-13.088639319402253
20
7.961088004127092
0
VERTEX
8
0
70
0
10
-13.124263750071247
20
8.02475151372498
0
VERTEX
8
0
70
0
10
-13.13968271582284
20
8.050058386042952
0
VERTEX
8
0
70
0
10
-13.179654338758983
20
8.110503959736672
0
VERTEX
8
0
70
0
10
-13.201990882067408
20
8.141038065745136
0
VERTEX
8
0
70
0
10
-13.247458987214891
20
8.197393295438246
0
VERTEX
8
0
70
0
10
-13.255937798622341
20
8.207553700541066
0
VERTEX
8
0
70
0
10
-13.303080697650218
20
8.262183418269117
0
VERTEX
8
0
70
0
10
-13.350189128109248
20
8.317047651094768
0
VERTEX
8
0
70
0
10
-13.373139375252281
20
8.341608228214223
0
VERTEX
8
0
70
0
10
-13.425570657529283
20
8.393191819294213
0
VERTEX
8
0
70
0
10
-13.451420478290023
20
8.416499379307389
0
VERTEX
8
0
70
0
10
-13.509182845500218
20
8.464192776693327
0
VERTEX
8
0
70
0
10
-13.510925797735364
20
8.465623659070221
0
VERTEX
8
0
70
0
10
-13.569182623672546
20
8.513175534046464
0
VERTEX
8
0
70
0
10
-13.569793018532
20
8.513672766025042
0
VERTEX
8
0
70
0
10
-13.62832273140626
20
8.561255739786048
0
VERTEX
8
0
70
0
10
-13.641905574890995
20
8.571821160800617
0
VERTEX
8
0
70
0
10
-13.703270744678223
20
8.6174698424425
0
VERTEX
8
0
70
0
10
-13.705275767901847
20
8.618951666903637
0
VERTEX
8
0
70
0
10
-13.754224659046741
20
8.654892310079177
0
VERTEX
8
0
70
0
10
-13.797510141373545
20
8.69238412520916
0
VERTEX
8
0
70
0
10
-13.825739113074667
20
8.717368048492187
0
VERTEX
8
0
70
0
10
-13.849658900762101
20
8.74766629455948
0
VERTEX
8
0
70
0
10
-13.85018930853859
20
8.748336666956224
0
VERTEX
8
0
70
0
10
-13.882370848074578
20
8.788921111996853
0
VERTEX
8
0
70
0
10
-13.910009266166533
20
8.833282654938834
0
VERTEX
8
0
70
0
10
-13.919628768897468
20
8.847992386366531
0
VERTEX
8
0
70
0
10
-13.959359413274166
20
8.905926900560171
0
VERTEX
8
0
70
0
10
-13.995055337375883
20
8.960645321238744
0
VERTEX
8
0
70
0
10
-14.031913217744119
20
9.020475687948014
0
VERTEX
8
0
70
0
10
-14.0368270539924
20
9.028250573871553
0
VERTEX
8
0
70
0
10
-14.077876717155046
20
9.091577120094005
0
VERTEX
8
0
70
0
10
-14.085512072370456
20
9.10292607979704
0
VERTEX
8
0
70
0
10
-14.128716861829124
20
9.16483204285748
0
VERTEX
8
0
70
0
10
-14.135775025007161
20
9.174626974302456
0
VERTEX
8
0
70
0
10
-14.180036657633215
20
9.234136356948529
0
VERTEX
8
0
70
0
10
-14.220719211564832
20
9.289668294540512
0
VERTEX
8
0
70
0
10
-14.260808936441832
20
9.34767239311783
0
VERTEX
8
0
70
0
10
-14.26491706001068
20
9.353504381145644
0
VERTEX
8
0
70
0
10
-14.3093189491401
20
9.41535934557793
0
VERTEX
8
0
70
0
10
-14.309775909336663
20
9.415994610725257
0
VERTEX
8
0
70
0
10
-14.353319595103432
20
9.476404212822644
0
VERTEX
8
0
70
0
10
-14.396413194472496
20
9.5373665480496
0
VERTEX
8
0
70
0
10
-14.40357258291983
20
9.54717523148009
0
VERTEX
8
0
70
0
10
-14.44873543722111
20
9.607117990325836
0
VERTEX
8
0
70
0
10
-14.487648600191022
20
9.659633476044295
0
VERTEX
8
0
70
0
10
-14.523483211589507
20
9.713341296286671
0
VERTEX
8
0
70
0
10
-14.56364218661572
20
9.775306656262185
0
VERTEX
8
0
70
0
10
-14.600908767100586
20
9.833330923241164
0
VERTEX
8
0
70
0
10
-14.635283374135598
20
9.891704165104706
0
VERTEX
8
0
70
0
10
-14.67291820908555
20
9.957460129173466
0
VERTEX
8
0
70
0
10
-14.678694326767307
20
9.967228159890098
0
VERTEX
8
0
70
0
10
-14.714132139070244
20
10.02526225380306
0
VERTEX
8
0
70
0
10
-14.74686956071026
20
10.085574164064404
0
VERTEX
8
0
70
0
10
-14.801997642198538
20
10.163330772273433
0
VERTEX
8
0
70
0
10
-14.854801870501866
20
10.22160912641165
0
VERTEX
8
0
70
0
10
-14.86547336402327
20
10.232936060025967
0
VERTEX
8
0
70
0
10
-14.920904287927247
20
10.289524424965158
0
VERTEX
8
0
70
0
10
-14.955950934793627
20
10.32130464603565
0
VERTEX
8
0
70
0
10
-15.019343845892235
20
10.372294539682716
0
VERTEX
8
0
70
0
10
-15.059787650595885
20
10.400889715486176
0
VERTEX
8
0
70
0
10
-15.12668373430202
20
10.442224814163643
0
VERTEX
8
0
70
0
10
-15.188432631833479
20
10.483162716453286
0
VERTEX
8
0
70
0
10
-15.23993002526856
20
10.518709104918774
0
VERTEX
8
0
70
0
10
-15.264162953863872
20
10.538790230157634
0
VERTEX
8
0
70
0
10
-15.29498516482144
20
10.574306202747152
0
VERTEX
8
0
70
0
10
-15.29621838702235
20
10.57572051105265
0
VERTEX
8
0
70
0
10
-15.330149916555568
20
10.614450765822085
0
VERTEX
8
0
70
0
10
-15.353894739744698
20
10.650974701870702
0
VERTEX
8
0
70
0
10
-15.386327235714623
20
10.705459839545524
0
VERTEX
8
0
70
0
10
-15.418860272483949
20
10.766329353864503
0
VERTEX
8
0
70
0
10
-15.454892496279417
20
10.836168857117034
0
VERTEX
8
0
70
0
10
-15.455129135714863
20
10.836626799407027
0
VERTEX
8
0
70
0
10
-15.492662766974636
20
10.909146899804993
0
VERTEX
8
0
70
0
10
-15.497134785506788
20
10.917541427280803
0
VERTEX
8
0
70
0
10
-15.536340390894704
20
10.989072484229554
0
VERTEX
8
0
70
0
10
-15.548729751981657
20
11.010125125982087
0
VERTEX
8
0
70
0
10
-15.59207611006889
20
11.078887835865833
0
VERTEX
8
0
70
0
10
-15.598432859045555
20
11.088653623777613
0
VERTEX
8
0
70
0
10
-15.643804800014834
20
11.156185677165862
0
VERTEX
8
0
70
0
10
-15.659832179908223
20
11.17836282591626
0
VERTEX
8
0
70
0
10
-15.709835553827128
20
11.24279047760439
0
VERTEX
8
0
70
0
10
-15.712438401644663
20
11.24610790954113
0
VERTEX
8
0
70
0
10
-15.763262902031391
20
11.31018736124255
0
VERTEX
8
0
70
0
10
-15.775550160181748
20
11.324937764224998
0
VERTEX
8
0
70
0
10
-15.829705777595382
20
11.386865149209106
0
VERTEX
8
0
70
0
10
-15.830937686729673
20
11.388267232696712
0
VERTEX
8
0
70
0
10
-15.882500468686748
20
11.44667743984124
0
VERTEX
8
0
70
0
10
-15.932730880636276
20
11.506284439514491
0
VERTEX
8
0
70
0
10
-15.938824683603524
20
11.513346992689021
0
VERTEX
8
0
70
0
10
-15.993723641282017
20
11.575493336791688
0
VERTEX
8
0
70
0
10
-16.001678615881524
20
11.584234723278838
0
VERTEX
8
0
70
0
10
-16.048440448005355
20
11.634118468852883
0
VERTEX
8
0
70
0
10
-16.099726548203684
20
11.68878999090264
0
VERTEX
8
0
70
0
10
-16.141710269478736
20
11.746767683128077
0
VERTEX
8
0
70
0
10
-16.174438565949874
20
11.807356119824128
0
VERTEX
8
0
70
0
10
-16.19795839173647
20
11.869859875285714
0
VERTEX
8
0
70
0
10
-16.212316700957903
20
11.933583523807771
0
VERTEX
8
0
70
0
10
-16.217560447733526
20
11.997831639685222
0
VERTEX
8
0
70
0
10
-16.21373658618272
20
12.061908797212995
0
VERTEX
8
0
70
0
10
-16.20089207042485
20
12.125119570686024
0
VERTEX
8
0
70
0
10
-16.17907385457928
20
12.186768534399228
0
VERTEX
8
0
70
0
10
-16.148328892765385
20
12.246160262647543
0
VERTEX
8
0
70
0
10
-16.108704139102528
20
12.302599329725892
0
VERTEX
8
0
70
0
10
-16.06024654771009
20
12.35539030992921
0
VERTEX
8
0
70
0
10
-16.003003072707433
20
12.403837777552418
0
VERTEX
8
0
70
0
10
-14.372500080618506
20
13.622172549863524
0
VERTEX
8
0
70
0
10
-14.32678469102109
20
13.662077664509873
0
VERTEX
8
0
70
0
10
-13.99208041176313
20
14.002295247961248
0
VERTEX
8
0
70
0
10
-13.963327880592066
20
14.034888355910981
0
VERTEX
8
0
70
0
10
-13.77836864267721
20
14.269059539274835
0
VERTEX
8
0
70
0
10
-13.7522133436872
20
14.30635936935158
0
VERTEX
8
0
70
0
10
-13.638210037049731
20
14.490412021555471
0
VERTEX
8
0
70
0
10
-13.622113907942419
20
14.51894621887789
0
VERTEX
8
0
70
0
10
-13.539170806879058
20
14.681168526434709
0
VERTEX
8
0
70
0
10
-13.525153131688398
20
14.711680497690766
0
VERTEX
8
0
70
0
10
-13.465352264341197
20
14.857713335667356
0
VERTEX
8
0
70
0
10
-13.456000220483277
20
14.882938197399998
0
VERTEX
8
0
70
0
10
-13.410736228954898
20
15.018888022200215
0
VERTEX
8
0
70
0
10
-13.405647205543376
20
15.035347294962536
0
VERTEX
8
0
70
0
10
-13.368352012475924
20
15.165866108469416
0
VERTEX
8
0
70
0
10
-13.365071074806623
20
15.178075283504613
0
VERTEX
8
0
70
0
10
-13.333093699839347
20
15.305043862040963
0
VERTEX
8
0
70
0
10
-13.327930700575537
20
15.328495212769225
0
VERTEX
8
0
70
0
10
-13.305130056649784
20
15.449210571748475
0
VERTEX
8
0
70
0
10
-13.304646232925172
20
15.451819539972847
0
VERTEX
8
0
70
0
10
-13.282751245590505
20
15.572110038916756
0
VERTEX
8
0
70
0
10
-13.279621966501905
20
15.592183140608357
0
VERTEX
8
0
70
0
10
-13.264585055175786
20
15.707872345040636
0
VERTEX
8
0
70
0
10
-13.263993693938538
20
15.712646525964201
0
VERTEX
8
0
70
0
10
-13.250468127656932
20
15.827498337212294
0
VERTEX
8
0
70
0
10
-13.249439532247054
20
15.837262971395115
0
VERTEX
8
0
70
0
10
-13.238940938981262
20
15.950218558277
0
VERTEX
8
0
70
0
10
-13.237874355363878
20
15.964441908673725
0
VERTEX
8
0
70
0
10
-13.231581912211924
20
16.074681030535917
0
VERTEX
8
0
70
0
10
-13.231338590481519
20
16.079442434744607
0
VERTEX
8
0
70
0
10
-13.226395518535966
20
16.188973118353857
0
VERTEX
8
0
70
0
10
-13.226045912398611
20
16.200247645637944
0
VERTEX
8
0
70
0
10
-13.22422778270264
20
16.30783073068912
0
VERTEX
8
0
70
0
10
-13.224170711427517
20
16.31441772079437
0
VERTEX
8
0
70
0
10
-13.22412489111978
20
16.421004870693174
0
VERTEX
8
0
70
0
10
-13.224361434154247
20
16.434932116296938
0
VERTEX
8
0
70
0
10
-13.227948658834846
20
16.539185910010332
0
VERTEX
8
0
70
0
10
-13.231523978460855
20
16.643698986502592
0
VERTEX
8
0
70
0
10
-13.234840485039365
20
16.68319920268519
0
VERTEX
8
0
70
0
10
-13.248000776334939
20
16.781314877417998
0
VERTEX
8
0
70
0
10
-13.248080246270797
20
16.781904037066404
0
VERTEX
8
0
70
0
10
-13.261408594006996
20
16.88016406047442
0
VERTEX
8
0
70
0
10
-13.266804726637298
20
16.91089333983833
0
VERTEX
8
0
70
0
10
-13.287053995384653
20
17.004591158853103
0
VERTEX
8
0
70
0
10
-13.290974665949927
20
17.021040771658633
0
VERTEX
8
0
70
0
10
-13.314826766300975
20
17.112497790030687
0
VERTEX
8
0
70
0
10
-13.319487148120746
20
17.128923315415385
0
VERTEX
8
0
70
0
10
-13.346884558787856
20
17.21818480979107
0
VERTEX
8
0
70
0
10
-13.353047194449516
20
17.23664873162111
0
VERTEX
8
0
70
0
10
-13.384384080603514
20
17.32344538973075
0
VERTEX
8
0
70
0
10
-13.38441434861342
20
17.323529196597907
0
VERTEX
8
0
70
0
10
-13.415849696243145
20
17.410537884877996
0
VERTEX
8
0
70
0
10
-13.42793948283809
20
17.44022164410793
0
VERTEX
8
0
70
0
10
-13.465654424402944
20
17.523146258906188
0
VERTEX
8
0
70
0
10
-13.468324714143856
20
17.528896129387608
0
VERTEX
8
0
70
0
10
-13.507343764178419
20
17.61120120477633
0
VERTEX
8
0
70
0
10
-13.510250900123122
20
17.61720359740773
0
VERTEX
8
0
70
0
10
-13.550637079101808
20
17.69884727887342
0
VERTEX
8
0
70
0
10
-13.558985101290105
20
17.71480871112988
0
VERTEX
8
0
70
0
10
-13.602873352261629
20
17.79431120929128
0
VERTEX
8
0
70
0
10
-13.603712311435437
20
17.79582322975476
0
VERTEX
8
0
70
0
10
-13.648042204645218
20
17.875311643875783
0
VERTEX
8
0
70
0
10
-13.659430097839659
20
17.89445780670309
0
VERTEX
8
0
70
0
10
-13.708056428914743
20
17.97126033549697
0
VERTEX
8
0
70
0
10
-13.711543634749855
20
17.97667134525915
0
VERTEX
8
0
70
0
10
-13.761506317593478
20
18.052844025569733
0
VERTEX
8
0
70
0
10
-13.764397123640764
20
18.05718924610829
0
VERTEX
8
0
70
0
10
-13.815473679449005
20
18.13288777476435
0
VERTEX
8
0
70
0
10
-13.824132674807409
20
18.14521381900338
0
VERTEX
8
0
70
0
10
-13.878181941525087
20
18.219152655952357
0
VERTEX
8
0
70
0
10
-13.886016926538959
20
18.229513433277212
0
VERTEX
8
0
70
0
10
-13.94266829061666
20
18.30195214586875
0
VERTEX
8
0
70
0
10
-13.94885338570917
20
18.309662619700347
0
VERTEX
8
0
70
0
10
-14.007538606700164
20
18.380996879530592
0
VERTEX
8
0
70
0
10
-14.011936599566909
20
18.386250457371773
0
VERTEX
8
0
70
0
10
-14.072092644518746
20
18.45687152771499
0
VERTEX
8
0
70
0
10
-14.078667518450194
20
18.46439767686985
0
VERTEX
8
0
70
0
10
-14.1409139344234
20
18.53387885970107
0
VERTEX
8
0
70
0
10
-14.147794190124428
20
18.541365125192428
0
VERTEX
8
0
70
0
10
-14.212188789525356
20
18.609668426253126
0
VERTEX
8
0
70
0
10
-14.218017392495979
20
18.615722136487047
0
VERTEX
8
0
70
0
10
-14.284239241186876
20
18.683071056703177
0
VERTEX
8
0
70
0
10
-14.289749597690601
20
18.688567205782203
0
VERTEX
8
0
70
0
10
-14.357697067034797
20
18.755033449984968
0
VERTEX
8
0
70
0
10
-14.367429019827693
20
18.76423944369057
0
VERTEX
8
0
70
0
10
-14.438257485255088
20
18.829027388674223
0
VERTEX
8
0
70
0
10
-14.440608304911377
20
18.831160650155294
0
VERTEX
8
0
70
0
10
-14.512276930703248
20
18.895679941456294
0
VERTEX
8
0
70
0
10
-14.518570254611767
20
18.90122710462527
0
VERTEX
8
0
70
0
10
-14.592160118787705
20
18.96473311524607
0
VERTEX
8
0
70
0
10
-14.604487356099945
20
18.97494799486641
0
VERTEX
8
0
70
0
10
-14.68163542500641
20
19.036314196314144
0
VERTEX
8
0
70
0
10
-14.690538499587005
20
19.043193806696806
0
VERTEX
8
0
70
0
10
-14.770313014196423
20
19.103064603392706
0
VERTEX
8
0
70
0
10
-14.782094373306794
20
19.111576358828756
0
VERTEX
8
0
70
0
10
-14.86528579993443
20
19.169409294134937
0
VERTEX
8
0
70
0
10
-14.877088788783356
20
19.17730743553207
0
VERTEX
8
0
70
0
10
-14.963728897407952
20
19.233082951196128
0
VERTEX
8
0
70
0
10
-14.978375692946734
20
19.24207291486133
0
VERTEX
8
0
70
0
10
-15.069293954564253
20
19.29522253069624
0
VERTEX
8
0
70
0
10
-15.082030151177861
20
19.302359326924517
0
VERTEX
8
0
70
0
10
-15.176771357835323
20
19.353198841490315
0
VERTEX
8
0
70
0
10
-15.187736184732707
20
19.358866602398084
0
VERTEX
8
0
70
0
10
-15.285874635127039
20
19.407690970787204
0
VERTEX
8
0
70
0
10
-15.298658802345464
20
19.413771360666594
0
VERTEX
8
0
70
0
10
-15.400811198118921
20
19.460158553083467
0
VERTEX
8
0
70
0
10
-15.41128353672084
20
19.46473471203871
0
VERTEX
8
0
70
0
10
-15.516867575891684
20
19.509086998633883
0
VERTEX
8
0
70
0
10
-15.520516141942565
20
19.51059849188812
0
VERTEX
8
0
70
0
10
-15.627510926410862
20
19.554305694152905
0
VERTEX
8
0
70
0
10
-15.64717180439784
20
19.561740545022836
0
VERTEX
8
0
70
0
10
-15.760690913849556
20
19.601291506412025
0
VERTEX
8
0
70
0
10
-15.77364006125895
20
19.605557050221734
0
VERTEX
8
0
70
0
10
-15.89178838002032
20
19.642256142624525
0
VERTEX
8
0
70
0
10
-15.912203668090957
20
19.648008667008362
0
VERTEX
8
0
70
0
10
-16.037899757926592
20
19.679854994438987
0
VERTEX
8
0
70
0
10
-16.05849936291128
20
19.684499103918984
0
VERTEX
8
0
70
0
10
-16.19245941615994
20
19.711004934916446
0
VERTEX
8
0
70
0
10
-16.250861524949222
20
19.71814938577115
0
VERTEX
8
0
70
0
10
-16.412594910476
20
19.725937024354202
0
VERTEX
8
0
70
0
10
-16.825831704439274
20
19.39542931146261
0
VERTEX
8
0
70
0
10
-16.431833419583423
20
19.326400153828835
0
SEQEND
0
ENDSEC
0
EOF